<?xml version="1.0" encoding="utf-8"?>
<!-- Generator: Adobe Illustrator 23.0.5, SVG Export Plug-In . SVG Version: 6.00 Build 0)  -->
<svg version="1.1" xmlns="http://www.w3.org/2000/svg" xmlns:xlink="http://www.w3.org/1999/xlink" x="0px" y="0px"
	 viewBox="0 0 500 500" style="enable-background:new 0 0 500 500;" xml:space="preserve">
<style type="text/css">
	.st0{fill:#1B2327;}
	.st1{fill:#EBEBEB;}
	.st2{fill:#455A64;}
	.st3{fill:#263238;}
	.st4{fill:#E8505B;}
	.st5{fill:#FAFAFA;}
	.st6{fill:#FFBE9D;}
	.st7{opacity:0.6;}
	.st8{fill:#FFFFFF;}
	.st9{opacity:0.3;}
	.st10{fill:#EB996E;}
	.st11{fill:#E0E0E0;}
</style>
<g id="Screens">
	<rect class="st0" width="500" height="500"/>
</g>
<g id="Background_Complete">
</g>
<g id="Background_Simple">
</g>
<g id="Floor">
</g>
<g id="Character">
</g>
<g id="Plant">
</g>
<g id="Devices">
</g>
<g id="Desk">
	<path class="st1" d="M453.68,74.22l-2.71-4.42c-21.79-35.45-61.02-56.93-102.58-54.81c-5.84,0.3-11.66,1.04-17.39,2.26
		c-38.23,8.08-71.49,36.62-85.27,73.18c-8.11,21.5-10.37,46.25-25.76,63.32c-20.02,22.21-54.02,22.91-83.91,21.99
		c-29.89-0.92-63.91-0.14-83.84,22.16c-12.48,13.96-16.45,33.82-15.44,52.52c2.66,49.51,37.6,93.78,82.04,115.79
		c44.43,22,96.75,23.98,145.38,14.3c68.12-13.56,132.91-50.8,171.85-108.32C474.98,214.67,484.84,136.3,453.68,74.22z"/>
	<path class="st1" d="M177.9,86.42c-10.73-10.73-29.68-18.28-42.5-10.15l1.83-0.97c-13.61,6.71-22.42,22.2-21.01,37.31
		c1.41,15.11,13.07,28.78,27.82,32.33c14.75,3.55,31.48-3.43,39.14-16.53C190.84,115.31,188.63,97.15,177.9,86.42z"/>
	<g>
		<g>
			<g>
				<g>
					<g>
						<g>
							<path class="st2" d="M143.43,267.12l28.39,95.82c1.26,4.25,5.17,7.17,9.61,7.17l115.17,0.32
								c6.11,0.02,10.99-5.11,10.66-11.21l0,0c-0.3-5.65-4.97-10.08-10.63-10.08h-44.05l-35.27-98.28h-61.74
								C147.11,250.85,141.02,259,143.43,267.12z"/>
						</g>
					</g>
				</g>
				<g>
					<g>
						<g>
							<g>
								<path class="st3" d="M240.87,357c0,0.22-11.74,0.41-26.23,0.41c-14.49,0-26.23-0.18-26.23-0.41
									c0-0.22,11.74-0.41,26.23-0.41C229.13,356.6,240.87,356.78,240.87,357z"/>
							</g>
						</g>
					</g>
				</g>
				<g>
					<g>
						<g>
							<g>
								<path class="st3" d="M151.9,253.9c0.21-0.07,8.06,22.87,17.51,51.24c9.46,28.37,16.96,51.43,16.75,51.5
									c-0.21,0.07-8.05-22.87-17.52-51.24C159.18,277.03,151.69,253.97,151.9,253.9z"/>
							</g>
						</g>
					</g>
				</g>
			</g>
			<g>
				<polygon class="st2" points="236.08,455.25 229.06,455.08 229.06,370.11 236.08,370.11 				"/>
			</g>
			<g>
				<polygon class="st2" points="199.9,454.86 265.24,454.86 235.64,444.57 228.62,444.57 				"/>
			</g>
		</g>
		<g>
			<g>
				<g>
					<g>
						<g>
							<g>
								<g>
									<g>
										<path class="st4" d="M183.38,228.88l10.81,54.01l-1.93,40.48l72.67-12.09l-2.85-35.45l-0.05-29.33l17.82,34.53l13.87-26.8
											l-25.4-46.02l0,0.01c-4.65-4.83-10.1-8.4-16.62-10.76c-3.17-1.15-6.53-1.83-10.42-2v0c-8.39,2.59-16.77,2.6-25.16,0.02
											c-1.02,0.13-2.44,0.26-4.22,0.47c-0.11,0.01-0.22,0.03-0.33,0.04c-15.42,1.88-27.19,14.7-28.04,30.21L183.38,228.88z"/>
									</g>
								</g>
							</g>
						</g>
					</g>
					<g>
						<g>
							<g>
								<path class="st4" d="M211.9,195.97c0,0-29.86,0.23-33.56,31.76l-0.5,23.12l25.72-0.22L211.9,195.97z"/>
							</g>
						</g>
					</g>
				</g>
			</g>
			<g>
				<g>
					<g>
						<g>
							<path class="st5" d="M283.23,236.54c0,0.22-23.5,0.41-52.47,0.41c-28.99,0-52.48-0.18-52.48-0.41s23.49-0.41,52.48-0.41
								C259.73,236.13,283.23,236.31,283.23,236.54z"/>
						</g>
					</g>
				</g>
			</g>
			<g>
				<g>
					<g>
						<g>
							<path class="st5" d="M283.23,241.54c0,0.22-23.5,0.41-52.47,0.41c-28.99,0-52.48-0.18-52.48-0.41
								c0-0.22,23.49-0.41,52.48-0.41C259.73,241.13,283.23,241.31,283.23,241.54z"/>
						</g>
					</g>
				</g>
			</g>
			<g>
				<g>
					<g>
						<g>
							<path class="st5" d="M281.55,232.39c0,0.22-23.12,0.41-51.63,0.41c-28.52,0-51.64-0.18-51.64-0.41
								c0-0.22,23.11-0.41,51.64-0.41C258.43,231.99,281.55,232.17,281.55,232.39z"/>
						</g>
					</g>
				</g>
			</g>
			<g>
				<g>
					<g>
						<g>
							<path class="st3" d="M261.63,281.04c-0.22,0-0.12-12.79,0.22-28.54c0.35-15.76,0.81-28.53,1.03-28.53
								c0.22,0,0.12,12.78-0.22,28.55C262.32,268.28,261.86,281.05,261.63,281.04z"/>
						</g>
					</g>
				</g>
			</g>
			<g>
				<g>
					<g>
						<path class="st6" d="M251.43,260.32c0,0,14.12,1.01,16.67,4.74c2.54,3.73,6.42,14.38,4.95,14.46c-1.47,0.08-2.54-0.8-2.54-0.8
							l-3.87-6.86c0,0,0.62,6.63-1.69,6.76c-2.31,0.13-13.78,2.43-13.78,2.43L251.43,260.32z"/>
					</g>
				</g>
			</g>
			<g>
				<g>
					<g>
						<path class="st4" d="M177.84,244.7l-0.05,36.41c0.46,8.51,8.43,14.58,16.76,12.77l56.95-11.73l-0.12-23.35l-49.14,9.43
							l-0.65-24.72L177.84,244.7z"/>
					</g>
				</g>
			</g>
			<g>
				<g>
					<g>
						<g>
							<path class="st3" d="M210.33,290.96c0-0.02,0.25-0.09,0.75-0.21c0.56-0.13,1.29-0.29,2.21-0.5c2-0.42,4.82-1.02,8.37-1.77
								c7.27-1.49,17.5-3.58,29.64-6.06l-0.29,0.35c-0.01-7.33-0.03-15.43-0.04-23.98l0.48,0.39c-3.21,0.62-6.58,1.27-10.01,1.92
								c-14.39,2.74-27.83,5.3-39.13,7.45l-0.43,0.08l0.01-0.43c0.37-10.84,0.68-19.86,0.9-26.26c0.13-3.11,0.23-5.57,0.31-7.33
								c0.04-0.8,0.08-1.44,0.11-1.93c0.03-0.44,0.05-0.66,0.07-0.66c0.02,0,0.03,0.23,0.03,0.66c0,0.49,0,1.13,0,1.93
								c-0.03,1.76-0.07,4.23-0.12,7.34c-0.15,6.39-0.36,15.42-0.61,26.25l-0.41-0.34c11.29-2.19,24.73-4.78,39.11-7.57
								c3.43-0.66,6.81-1.3,10.01-1.92l0.48-0.09l0,0.49c-0.01,8.55-0.03,16.65-0.04,23.98l0,0.3l-0.29,0.06
								c-12.17,2.36-22.42,4.36-29.7,5.77c-3.56,0.67-6.4,1.2-8.41,1.57c-0.93,0.16-1.67,0.29-2.23,0.39
								C210.6,290.95,210.34,290.98,210.33,290.96z"/>
						</g>
					</g>
				</g>
			</g>
			<g>
				<g>
					<g>
						<g>
							<path class="st3" d="M243,195.97c0.03-0.01,0.11,0.17,0.23,0.53c0.14,0.36,0.29,0.9,0.44,1.61c0.28,1.41,0.44,3.59-0.27,6.13
								c-0.68,2.53-2.34,5.33-4.94,7.63c-2.56,2.35-6.33,3.95-10.37,3.91c-4.03,0.04-7.84-1.61-10.25-4.16
								c-2.43-2.55-3.51-5.66-3.81-8.24c-0.28-2.62,0.18-4.74,0.72-6.09c0.27-0.68,0.52-1.18,0.73-1.5c0.2-0.33,0.31-0.49,0.33-0.48
								c0.08,0.04-0.35,0.73-0.77,2.08c-0.43,1.35-0.79,3.41-0.45,5.92c0.37,2.47,1.45,5.42,3.78,7.8c2.29,2.37,5.88,3.91,9.71,3.87
								c3.84,0.03,7.41-1.45,9.87-3.66c2.53-2.18,4.16-4.82,4.89-7.23c0.75-2.41,0.69-4.52,0.5-5.92
								C243.18,196.75,242.92,195.99,243,195.97z"/>
						</g>
					</g>
				</g>
			</g>
			<g>
				<g>
					<g>
						<g>
							<path class="st5" d="M245.75,284.08c-0.12-0.01-0.07-1.38,0.01-3.59c0.08-2.21,0.19-5.26,0.21-8.63
								c0.02-3.37-0.05-6.42-0.11-8.63c-0.06-2.21-0.09-3.58,0.03-3.59c0.11-0.01,0.34,1.35,0.54,3.56
								c0.21,2.21,0.37,5.28,0.35,8.67c-0.02,3.39-0.22,6.46-0.45,8.67C246.1,282.73,245.86,284.09,245.75,284.08z"/>
						</g>
					</g>
				</g>
			</g>
			<g>
				<g>
					<g>
						<g>
							<path class="st5" d="M242.81,284.67c-0.11-0.01-0.13-1.37-0.1-3.57c0.03-2.51,0.06-5.39,0.09-8.58
								c0-3.19-0.01-6.07-0.01-8.58c0-2.2,0.02-3.56,0.14-3.57c0.11-0.01,0.29,1.35,0.44,3.55c0.15,2.2,0.26,5.24,0.25,8.6
								c-0.02,3.36-0.16,6.4-0.33,8.6C243.11,283.33,242.92,284.68,242.81,284.67z"/>
						</g>
					</g>
				</g>
			</g>
		</g>
		<g>
			<g>
				<g>
					<g>
						<path class="st4" d="M299.84,429.34l10.76,29.64l15.27,20.99c1.1,1.51,0.69,3.64-0.89,4.64l0,0
							c-0.89,0.56-1.98,0.65-2.95,0.25c-6.16-2.56-28.77-12.07-29.43-14.28c-0.77-2.56-15.37-34.44-15.37-34.44L299.84,429.34z"/>
					</g>
				</g>
				<g class="st7">
					<g>
						<path class="st8" d="M324.98,484.61l-33.15-16.01l0.48,1.24c0.42,1.08,1.2,1.97,2.22,2.52c2.72,1.47,10.32,5.35,27.41,12.53
							C322.94,485.32,324.08,485.21,324.98,484.61L324.98,484.61z"/>
					</g>
				</g>
				<g class="st7">
					<g>
						<g>
							<path class="st8" d="M294.17,456.77c0.93,0.22,1.61,1.24,1.42,2.19c-0.18,0.94-1.22,1.64-2.15,1.43
								c-0.94-0.21-1.79-1.41-1.5-2.32c0.29-0.92,1.54-1.67,2.4-1.24"/>
						</g>
					</g>
				</g>
				<g>
					<g>
						<g>
							<path class="st3" d="M313.26,474.38c0.2,0.02,0.26-1.78,1.69-3.29c1.38-1.55,3.16-1.77,3.13-1.96c0-0.08-0.46-0.17-1.19,0.01
								c-0.72,0.16-1.68,0.65-2.45,1.49c-0.77,0.85-1.17,1.84-1.27,2.57C313.06,473.94,313.18,474.39,313.26,474.38z"/>
						</g>
					</g>
				</g>
				<g>
					<g>
						<g>
							<path class="st3" d="M316.89,477.51c0.19,0.07,0.76-1.25,2.11-2.28c1.33-1.06,2.75-1.29,2.73-1.49
								c0.03-0.18-1.63-0.26-3.15,0.94C317.04,475.86,316.7,477.49,316.89,477.51z"/>
						</g>
					</g>
				</g>
				<g>
					<g>
						<g>
							<path class="st3" d="M307.4,470.86c0.19,0.09,1.06-1.95,3.02-3.73c1.93-1.81,4.03-2.51,3.96-2.71
								c-0.01-0.18-2.36,0.27-4.43,2.2C307.86,468.53,307.23,470.83,307.4,470.86z"/>
						</g>
					</g>
				</g>
				<g>
					<g>
						<g>
							<path class="st3" d="M303.38,462.12c0.15,0.15,1.51-1.16,3.59-2.06c2.07-0.93,3.95-1.04,3.95-1.25
								c0.02-0.18-2-0.38-4.23,0.62C304.45,460.39,303.23,462.02,303.38,462.12z"/>
						</g>
					</g>
				</g>
				<g>
					<g>
						<g>
							<path class="st3" d="M300,453.5c0.16,0.13,1.41-1.48,3.68-2.25c2.25-0.82,4.24-0.33,4.28-0.54c0.02-0.08-0.44-0.32-1.27-0.45
								c-0.82-0.13-2.02-0.09-3.24,0.34c-1.22,0.43-2.18,1.14-2.74,1.76C300.14,452.97,299.93,453.45,300,453.5z"/>
						</g>
					</g>
				</g>
				<g>
					<g>
						<g>
							<path class="st3" d="M302.99,449.63c0.04-0.01-0.05-0.43-0.39-1.13c-0.34-0.69-0.96-1.65-2.02-2.57
								c-0.53-0.42-1.13-1-2.1-1.06c-0.48-0.04-1.06,0.28-1.26,0.8c-0.2,0.51-0.12,1.04,0.05,1.51c0.76,1.85,3.06,3.03,5.26,2.49
								c2.2-0.59,3.64-2.53,3.84-4.47c0.02-0.49-0.05-1.05-0.47-1.46c-0.42-0.41-1.09-0.38-1.49-0.14
								c-0.82,0.47-1.18,1.19-1.54,1.76c-0.7,1.21-0.99,2.31-1.12,3.06c-0.13,0.76-0.1,1.19-0.06,1.19c0.13,0.04,0.18-1.73,1.59-4
								c0.37-0.54,0.78-1.2,1.38-1.5c0.29-0.15,0.61-0.13,0.81,0.07c0.2,0.19,0.29,0.59,0.26,0.98c-0.19,1.59-1.51,3.37-3.38,3.84
								c-1.85,0.48-3.87-0.56-4.5-2.05c-0.14-0.36-0.19-0.76-0.08-1.05c0.11-0.29,0.37-0.46,0.69-0.45c0.66,0.01,1.29,0.48,1.8,0.87
								C302.35,447.99,302.87,449.71,302.99,449.63z"/>
						</g>
					</g>
				</g>
			</g>
		</g>
		<g>
			<g>
				<g>
					<path class="st4" d="M345.27,421.59l-0.93,24.09c0,0,24.17,9.04,24.43,13.5l-46.77-0.13l-0.09-37.59L345.27,421.59z"/>
				</g>
				<g class="st7">
					<g>
						<path class="st8" d="M329.89,443.61c-0.91,0.25-1.53,1.26-1.33,2.18c0.21,0.92,1.24,1.56,2.15,1.33
							c0.91-0.23,1.7-1.43,1.39-2.31c-0.31-0.89-1.56-1.58-2.39-1.14"/>
					</g>
				</g>
				<g class="st7">
					<path class="st8" d="M322.01,459.06l-0.01-3.75l44.94,1.5c0,0,2.08,0.91,1.84,2.38L322.01,459.06z"/>
				</g>
				<g>
					<g>
						<path class="st3" d="M345.1,445.44c-0.01,0.23-1.15,0.33-2.28,1.06c-1.15,0.7-1.73,1.69-1.94,1.6
							c-0.21-0.04,0.13-1.41,1.51-2.27C343.77,444.96,345.15,445.24,345.1,445.44z"/>
					</g>
				</g>
				<g>
					<g>
						<path class="st3" d="M350,447.49c0.05,0.22-0.94,0.61-1.72,1.57c-0.81,0.94-1.01,1.98-1.23,1.97
							c-0.21,0.04-0.37-1.3,0.62-2.48C348.66,447.36,350,447.27,350,447.49z"/>
					</g>
				</g>
				<g>
					<g>
						<path class="st3" d="M352.77,453.37c-0.21,0.05-0.52-1.09,0.07-2.34c0.58-1.25,1.66-1.74,1.76-1.55
							c0.13,0.19-0.57,0.86-1.04,1.89C353.07,452.38,353,453.34,352.77,453.37z"/>
					</g>
				</g>
				<g>
					<g>
						<path class="st3" d="M344.71,439.93c-0.1,0.21-1.14-0.11-2.43-0.03c-1.29,0.06-2.3,0.49-2.42,0.29
							c-0.13-0.17,0.85-1.01,2.37-1.09C343.75,439.02,344.82,439.75,344.71,439.93z"/>
					</g>
				</g>
			</g>
			<g class="st9">
				<polygon points="345.08,426.36 344.92,430.66 321.94,430.38 321.92,426.52 				"/>
			</g>
			<g>
				<g>
					<path class="st3" d="M344.8,435.07c0,0.09-0.9,0.23-2.34-0.02c-0.72-0.13-1.56-0.36-2.45-0.76c-0.44-0.2-0.89-0.44-1.34-0.72
						c-0.22-0.14-0.47-0.28-0.71-0.55c-0.25-0.24-0.39-0.84-0.1-1.22c0.24-0.36,0.66-0.51,1-0.52c0.34-0.01,0.62,0.06,0.88,0.12
						c0.52,0.13,1.01,0.3,1.45,0.5c0.89,0.41,1.62,0.92,2.16,1.42c1.08,1.01,1.45,1.86,1.37,1.91c-0.1,0.07-0.63-0.64-1.73-1.47
						c-0.55-0.41-1.25-0.84-2.09-1.18c-0.42-0.17-0.87-0.31-1.34-0.42c-0.5-0.13-0.92-0.14-1.04,0.08
						c-0.05,0.08-0.05,0.12,0.05,0.26c0.11,0.13,0.31,0.27,0.52,0.4c0.41,0.27,0.83,0.51,1.24,0.71c0.81,0.41,1.59,0.69,2.26,0.87
						C343.93,434.88,344.81,434.94,344.8,435.07z"/>
				</g>
			</g>
			<g>
				<g>
					<path class="st3" d="M344.51,435.39c-0.08,0.03-0.53-0.78-0.61-2.26c-0.04-0.73,0.04-1.62,0.33-2.56
						c0.14-0.47,0.34-0.95,0.6-1.42c0.28-0.46,0.61-1.08,1.5-1.18c0.46-0.02,0.85,0.35,0.98,0.66c0.15,0.32,0.18,0.59,0.24,0.86
						c0.08,0.55,0.07,1.08,0,1.58c-0.15,0.99-0.56,1.82-1.01,2.42c-0.92,1.21-1.87,1.48-1.89,1.4c-0.08-0.11,0.72-0.55,1.42-1.72
						c0.35-0.57,0.65-1.33,0.75-2.2c0.05-0.43,0.04-0.89-0.04-1.35c-0.07-0.5-0.26-0.9-0.44-0.85c-0.23,0-0.63,0.37-0.82,0.76
						c-0.24,0.42-0.43,0.85-0.58,1.27c-0.3,0.84-0.43,1.65-0.46,2.34C344.39,434.5,344.63,435.36,344.51,435.39z"/>
				</g>
			</g>
		</g>
		<g>
			<g>
				<g>
					<g>
						<g>
							<path class="st3" d="M321.96,306.12c-27.63,2.86-64.26,6.61-64.26,6.61l5,44.97c0,0,53.81-14.22,53.43-13.07
								c-0.38,1.15,2.49,95.69,2.49,95.69h32.41l0.61-107.06C351.86,317.16,337.99,304.46,321.96,306.12z"/>
						</g>
					</g>
				</g>
				<g>
					<g>
						<g>
							<path class="st3" d="M191.59,324.26v13.95c0,9.49,10.81,19.56,20.31,19.56h7.34c5.78,0,14.85-4.21,19.52-7.62l2.81-2.05
								l33.74,104.54c0,0,38.61-6.92,38.61-8.14c0-1.22-26.15-85.62-38.22-124.8c-4.93-16-22.07-25.3-37.9-19.87
								c-0.54,0.19-1.08,0.39-1.62,0.6C218.88,307.35,191.59,324.26,191.59,324.26z"/>
						</g>
					</g>
				</g>
				<g>
					<g>
						<g>
							<g>
								<path class="st2" d="M313.92,444.49c-0.01,0-0.07-0.12-0.17-0.37c-0.11-0.3-0.25-0.66-0.43-1.12
									c-0.37-0.99-0.9-2.44-1.53-4.34c-1.3-3.78-3.07-9.28-5.22-16.09c-4.31-13.62-10.08-32.49-16.36-53.36
									c-3.12-10.44-6.1-20.38-8.81-29.44c-1.35-4.52-2.62-8.82-3.82-12.85c-0.6-2.01-1.18-3.95-1.73-5.82
									c-0.56-1.87-1.07-3.66-1.76-5.29c-1.32-3.29-3.4-5.8-5.45-7.72c-2.07-1.91-4.05-3.34-5.71-4.45
									c-1.65-1.11-2.97-1.93-3.87-2.47c-0.41-0.26-0.75-0.47-1.01-0.63c-0.23-0.15-0.34-0.23-0.33-0.24
									c0.01-0.01,0.13,0.04,0.37,0.17c0.28,0.15,0.63,0.33,1.06,0.56c0.93,0.5,2.27,1.27,3.96,2.35c1.69,1.07,3.71,2.47,5.84,4.38
									c2.11,1.91,4.28,4.47,5.67,7.83c0.72,1.66,1.26,3.47,1.83,5.33c0.57,1.87,1.16,3.8,1.78,5.81
									c1.22,4.02,2.52,8.32,3.89,12.83c2.73,9.05,5.72,18.99,8.87,29.42c6.29,20.84,11.99,39.7,16.13,53.43
									c2.09,6.78,3.78,12.28,4.98,16.16c0.59,1.86,1.05,3.32,1.39,4.38c0.14,0.46,0.26,0.84,0.35,1.14
									C313.9,444.35,313.93,444.49,313.92,444.49z"/>
							</g>
						</g>
					</g>
				</g>
				<g>
					<g>
						<g>
							<g>
								<path class="st2" d="M322.06,331.15c0.2,0.14-1.64,2.9-3.18,6.64c-1.57,3.74-2.22,6.98-2.46,6.94
									c-0.2-0.02,0.1-3.41,1.71-7.25C319.72,333.63,321.9,331.02,322.06,331.15z"/>
							</g>
						</g>
					</g>
				</g>
				<g>
					<g>
						<g>
							<g>
								<path class="st2" d="M328.25,335.49c0.1,0.23-2.69,1.45-5.59,3.75c-2.92,2.27-4.77,4.69-4.96,4.55
									c-0.18-0.1,1.43-2.82,4.46-5.19C325.17,336.22,328.2,335.3,328.25,335.49z"/>
							</g>
						</g>
					</g>
				</g>
				<g>
					<g>
						<g>
							<g>
								<path class="st2" d="M275.67,452.63c-0.21,0.07-9.33-27.91-20.36-62.48c-11.03-34.58-19.8-62.66-19.59-62.73
									c0.21-0.07,9.33,27.9,20.36,62.48C267.11,424.48,275.88,452.57,275.67,452.63z"/>
							</g>
						</g>
					</g>
				</g>
			</g>
		</g>
		<g>
			<g>
				<g>
					<polygon class="st2" points="234.25,289.55 344.71,290.61 365.31,232.39 284.97,232.94 266.32,285.29 234.25,285.77 					"/>
				</g>
			</g>
			<g>
				<path class="st8" d="M318,266.52c-2.45-0.35-4.15-2.61-3.8-5.06c0.35-2.45,2.61-4.15,5.06-3.8c2.45,0.35,4.15,2.61,3.8,5.06
					C322.71,265.16,320.44,266.86,318,266.52z"/>
			</g>
		</g>
		<g>
			<g>
				<g>
					<path class="st3" d="M225.24,131.96c1.04-3.87,3.96-5.78,7.75-7.08c3.8-1.29,8.22-0.58,11.41,1.85
						c2.13,1.62,3.81,3.99,6.34,4.87c4.17,1.45,9.06-1.67,13.06,0.2c2.37,1.11,3.75,4,3.11,6.54s-3.2,4.45-5.81,4.32
						c2.72,0.99,3.57,4.88,1.98,7.3c-1.59,2.42-4.86,3.34-7.71,2.81c-2.85-0.53-5.33-2.26-7.49-4.2c-2.16-1.94-4.09-4.13-6.39-5.89
						c-2.3-1.76-5.1-3.09-7.99-2.94c-3.92,0.21-7.28,3.17-9.03,6.68s-2.15,7.53-2.37,11.45c-0.22,3.92-0.29,7.9-1.45,11.65
						c-0.14,0.44-0.34,0.93-0.78,1.07c-0.64,0.2-1.18-0.48-1.49-1.07c-3.57-6.62-5.82-13.94-6.58-21.42
						c-0.44-4.34-0.33-8.46,2.06-12.11C216.25,132.35,222.28,129.66,225.24,131.96"/>
				</g>
			</g>
			<g>
				<g>
					<g>
						<g>
							<g>
								<g>
									<g>
										<g>
											<g>
												<g>
													<g>
														<g>
															<g>
																<g>
																	<g>
																		<path class="st6" d="M217.66,150.15l-2,43.97c-0.34,7.48,0.69,18.53,12.53,18.53l0,0
																			c10.28-0.78,13.32-10.38,13.63-17.36c0.15-3.31,0.28-6.07,0.31-6.41c0,0,11.24-0.54,12.55-11.58
																			c0.63-5.34,1.05-16.43,1.3-26.47c0.28-10.79-7.79-19.97-18.52-21.11l-1.07-0.11
																			C224.83,129.04,217.89,138.56,217.66,150.15z"/>
																	</g>
																</g>
															</g>
														</g>
													</g>
												</g>
											</g>
										</g>
									</g>
									<g>
										<g>
											<g>
												<g>
													<g>
														<g>
															<g>
																<g>
																	<g>
																		<path class="st10" d="M242.16,188.72c0,0-7.05-0.18-13.98-5.63c0,0,2.56,8.32,13.7,8.5L242.16,188.72z"/>
																	</g>
																</g>
															</g>
														</g>
													</g>
												</g>
											</g>
										</g>
									</g>
								</g>
							</g>
						</g>
						<g>
							<g>
								<g>
									<g>
										<g>
											<g>
												<g>
													<g>
														<g>
															<g>
																<g>
																	<g>
																		<g>
																			<g>
																				<g>
																					<path class="st3" d="M251.98,157.88c-0.06,0.84-0.82,1.48-1.69,1.43c-0.87-0.05-1.54-0.76-1.48-1.6
																						c0.06-0.84,0.82-1.48,1.69-1.43C251.38,156.33,252.04,157.05,251.98,157.88z"/>
																				</g>
																			</g>
																		</g>
																	</g>
																</g>
															</g>
														</g>
													</g>
												</g>
												<g>
													<g>
														<g>
															<g>
																<g>
																	<g>
																		<g>
																			<g>
																				<g>
																					<g>
																						<path class="st3" d="M253.03,155.99c-0.22,0.18-1.32-0.83-3.02-1c-1.69-0.2-3.03,0.54-3.2,0.31
																							c-0.08-0.1,0.16-0.45,0.74-0.79c0.58-0.34,1.53-0.62,2.59-0.51c1.06,0.12,1.91,0.6,2.38,1.06
																							C253,155.52,253.14,155.91,253.03,155.99z"/>
																					</g>
																				</g>
																			</g>
																		</g>
																	</g>
																</g>
															</g>
														</g>
													</g>
												</g>
											</g>
											<g>
												<g>
													<g>
														<g>
															<g>
																<g>
																	<g>
																		<g>
																			<g>
																				<g>
																					<path class="st3" d="M235.25,156.69c-0.06,0.84-0.82,1.48-1.69,1.43c-0.87-0.05-1.54-0.76-1.48-1.6
																						c0.06-0.84,0.82-1.48,1.69-1.43C234.65,155.13,235.31,155.85,235.25,156.69z"/>
																				</g>
																			</g>
																		</g>
																	</g>
																</g>
															</g>
														</g>
													</g>
												</g>
												<g>
													<g>
														<g>
															<g>
																<g>
																	<g>
																		<g>
																			<g>
																				<g>
																					<g>
																						<path class="st3" d="M236.3,154.53c-0.22,0.19-1.32-0.83-3.02-1c-1.69-0.2-3.03,0.54-3.2,0.31
																							c-0.08-0.1,0.16-0.45,0.74-0.79c0.58-0.34,1.53-0.62,2.59-0.51c1.06,0.12,1.91,0.6,2.38,1.06
																							C236.27,154.06,236.41,154.45,236.3,154.53z"/>
																					</g>
																				</g>
																			</g>
																		</g>
																	</g>
																</g>
															</g>
														</g>
													</g>
												</g>
											</g>
											<g>
												<g>
													<g>
														<g>
															<g>
																<g>
																	<g>
																		<g>
																			<g>
																				<g>
																					<path class="st3" d="M241.13,167.79c0-0.1,1.08-0.17,2.81-0.2c0.44,0,0.86-0.04,0.96-0.33
																						c0.14-0.3,0-0.79-0.15-1.32c-0.3-1.09-0.61-2.24-0.93-3.44c-1.28-4.89-2.16-8.9-1.96-8.95
																						c0.2-0.05,1.4,3.88,2.68,8.77c0.31,1.21,0.6,2.35,0.88,3.45c0.11,0.51,0.33,1.1,0.04,1.73
																						c-0.15,0.31-0.49,0.51-0.78,0.56c-0.29,0.06-0.53,0.03-0.75,0.02C242.19,167.99,241.12,167.89,241.13,167.79z"
																						/>
																				</g>
																			</g>
																		</g>
																	</g>
																</g>
															</g>
														</g>
													</g>
												</g>
											</g>
											<g>
												<g>
													<g>
														<g>
															<g>
																<g>
																	<g>
																		<g>
																			<g>
																				<g>
																					<path class="st3" d="M236,168.43c0.28,0.01,0.09,1.86,1.52,3.33c1.44,1.48,3.42,1.48,3.41,1.74
																						c0.01,0.12-0.48,0.31-1.31,0.25c-0.82-0.06-1.98-0.45-2.86-1.35c-0.88-0.91-1.18-2.02-1.16-2.78
																						C235.62,168.84,235.88,168.41,236,168.43z"/>
																				</g>
																			</g>
																		</g>
																	</g>
																</g>
															</g>
														</g>
													</g>
												</g>
											</g>
										</g>
									</g>
								</g>
								<g>
									<g>
										<g>
											<g>
												<g>
													<g>
														<g>
															<g>
																<g>
																	<path class="st3" d="M237.45,147.92c-0.22,0.44-1.89,0.04-3.91,0.07c-2.02-0.01-3.69,0.4-3.91-0.04
																		c-0.1-0.21,0.23-0.62,0.93-0.99c0.69-0.38,1.76-0.69,2.98-0.7c1.21,0,2.29,0.3,2.98,0.68
																		C237.21,147.31,237.54,147.71,237.45,147.92z"/>
																</g>
															</g>
														</g>
													</g>
												</g>
											</g>
										</g>
									</g>
								</g>
								<g>
									<g>
										<g>
											<g>
												<g>
													<g>
														<g>
															<g>
																<g>
																	<path class="st3" d="M252.93,151.01c-0.34,0.35-1.47-0.17-2.87-0.34c-1.4-0.22-2.63-0.02-2.86-0.45
																		c-0.1-0.21,0.13-0.58,0.69-0.89c0.55-0.31,1.44-0.52,2.41-0.38c0.96,0.13,1.76,0.57,2.21,1.02
																		C252.96,150.42,253.08,150.84,252.93,151.01z"/>
																</g>
															</g>
														</g>
													</g>
												</g>
											</g>
										</g>
									</g>
								</g>
							</g>
						</g>
					</g>
				</g>
			</g>
			<g>
				<g>
					<g>
						<g>
							<g>
								<g>
									<g>
										<g>
											<g>
												<g>
													<path class="st6" d="M217.69,158.43c-0.18-0.1-7.36-3.06-7.92,4.53c-0.56,7.58,7.17,6.58,7.2,6.37
														C217,169.11,217.69,158.43,217.69,158.43z"/>
												</g>
											</g>
										</g>
									</g>
								</g>
							</g>
						</g>
					</g>
				</g>
				<g>
					<g>
						<g>
							<g>
								<g>
									<g>
										<g>
											<g>
												<g>
													<g>
														<path class="st10" d="M214.87,166.28c-0.03-0.03-0.14,0.08-0.37,0.17c-0.23,0.08-0.6,0.12-0.99-0.05
															c-0.78-0.35-1.36-1.68-1.29-3.05c0.03-0.69,0.23-1.34,0.51-1.86c0.27-0.54,0.66-0.9,1.07-0.94
															c0.41-0.06,0.68,0.2,0.75,0.42c0.09,0.22,0.03,0.37,0.07,0.38c0.02,0.02,0.17-0.11,0.13-0.43
															c-0.02-0.15-0.1-0.34-0.26-0.5c-0.17-0.16-0.43-0.26-0.72-0.25c-0.59,0-1.15,0.5-1.47,1.07
															c-0.35,0.58-0.58,1.3-0.62,2.08c-0.06,1.53,0.61,3.02,1.68,3.42c0.52,0.18,0.98,0.05,1.22-0.11
															C214.84,166.46,214.89,166.3,214.87,166.28z"/>
													</g>
												</g>
											</g>
										</g>
									</g>
								</g>
							</g>
						</g>
					</g>
				</g>
			</g>
			<g>
				<g>
					<path class="st3" d="M258.57,148.77c-5.01,0.78-10.35-1.04-13.84-4.7c-2.45-2.57-4.17-6.07-7.43-7.46
						c-2.19-0.94-4.77-0.72-6.97,0.21c-2.2,0.93-4.07,2.5-5.71,4.23c1.54,5.85-0.56,11.96-2.64,17.64c-0.23,0.63-0.5,1.3-1.07,1.65
						c-0.97,0.59-2.25-0.09-2.94-0.99c-1.11-1.44-1.4-3.33-1.53-5.15c-0.29-4.13,0.05-8.33,1.38-12.25
						c1.33-3.92,3.68-7.54,6.95-10.06c4.09-3.16,9.5-4.44,14.63-3.82c5.13,0.63,9.97,3.09,13.74,6.63c1.75,1.64,3.32,3.56,4.07,5.84
						"/>
				</g>
			</g>
		</g>
	</g>
	<g>
		<g>
			<g>
				<g>
					<path class="st4" d="M46.11,382.44c3.87-2,8.43-2.26,12.74-1.55c2.31,0.38,4.72,1.07,6.29,2.81c1.57,1.74,1.87,4.79,0.06,6.28
						c-1.07,0.89-2.57,1.02-3.97,1.01c-3.37-0.04-7.1-0.63-9.79,1.39c-1.53,1.16-2.56,3.08-4.39,3.65c-1.79,0.56-3.82-0.5-4.77-2.12
						c-0.95-1.62-0.98-3.64-0.54-5.47C41.74,388.43,42.21,384.45,46.11,382.44z"/>
				</g>
			</g>
			<g>
				<g>
					<path class="st4" d="M37.23,365.3c2.37,3.38,6.97,2.26,9.11,0.2c2.13-2.07,3.04-5.06,3.86-7.91c1.88-6.52,3.77-13.36,2.37-20
						c-0.42-1.99-1.16-3.97-2.55-5.44c-1.4-1.47-3.54-2.35-5.5-1.83c-2.32,0.61-3.76,2.89-4.81,5.05
						c-3.06,6.36-4.69,13.4-4.71,20.46C34.99,359.13,35.37,362.58,37.23,365.3"/>
				</g>
			</g>
			<g>
				<g>
					<path class="st4" d="M30.73,370.16c2.57-3.05,3.06-7.5,1.92-11.33c-1.14-3.82-3.73-7.08-6.71-9.73
						c-3.49-3.11-7.6-5.54-12.01-7.09c-1.74-0.61-3.57-1.09-5.4-0.92c-1.83,0.17-3.68,1.11-4.53,2.74
						c-1.26,2.41-0.05,5.34,1.26,7.72c2.31,4.2,4.95,8.23,7.89,12.02c2.37,3.05,5.07,6.06,8.68,7.44c3.6,1.38,7.35,1.22,9.26-1.28"
						/>
				</g>
			</g>
			<g>
				<g>
					<g>
						<path class="st3" d="M37.07,416.34c0.04,0,0.12-0.55,0.21-1.54c0.11-1.12,0.25-2.52,0.41-4.2c0.2-1.77,0.45-3.87,0.94-6.15
							c0.49-2.28,1.25-4.75,2.24-7.26c1.02-2.49,2.26-4.76,3.71-6.57c1.44-1.82,3.11-3.14,4.69-3.9c1.57-0.77,2.98-1.09,3.95-1.23
							c0.98-0.1,1.53-0.18,1.53-0.22c0-0.04-0.55-0.05-1.56-0.02c-1,0.07-2.46,0.32-4.12,1.07c-1.66,0.74-3.44,2.07-4.95,3.93
							c-1.52,1.85-2.81,4.17-3.84,6.7c-1,2.55-1.75,5.05-2.22,7.38c-0.47,2.33-0.68,4.45-0.82,6.23c-0.13,1.78-0.18,3.22-0.21,4.22
							C37.02,415.78,37.03,416.33,37.07,416.34z"/>
					</g>
				</g>
			</g>
			<g>
				<g>
					<g>
						<path class="st3" d="M37.36,413.11c0.02,0,0.04-0.25,0.04-0.71c0-0.54,0-1.21-0.01-2.04c0-1.77,0-4.33,0.09-7.49
							c0.16-6.33,0.7-13.14,1.75-22.73c1-9.03,2.33-19.53,3.74-26.36c0.3-1.55,0.61-2.95,0.89-4.18c0.27-1.23,0.51-2.28,0.73-3.14
							c0.19-0.81,0.35-1.46,0.48-1.98c0.1-0.46,0.15-0.7,0.12-0.7c-0.02-0.01-0.11,0.22-0.25,0.67c-0.16,0.51-0.35,1.16-0.59,1.95
							c-0.26,0.85-0.53,1.9-0.84,3.12c-0.32,1.22-0.66,2.61-0.99,4.16c-1.4,6.19-2.87,14.84-3.94,24.46
							c-1.05,9.62-1.53,18.38-1.57,24.72c-0.04,3.17,0.03,5.74,0.11,7.51c0.05,0.83,0.09,1.5,0.12,2.04
							C37.31,412.86,37.34,413.11,37.36,413.11z"/>
					</g>
				</g>
			</g>
			<g>
				<g>
					<g>
						<path class="st3" d="M37.4,396.21c0.04,0,0.04-0.76-0.01-2.13c-0.08-1.37-0.27-3.35-0.65-5.77c-0.41-2.42-0.98-5.29-1.88-8.41
							c-0.39-1.43-1.3-4.84-3.52-9.95c-2.92-6.92-6.88-12.58-10.33-16.08c-0.81-0.93-1.71-1.6-2.43-2.26
							c-0.37-0.32-0.7-0.63-1.04-0.88c-0.34-0.23-0.65-0.45-0.94-0.65c-1.13-0.78-1.77-1.19-1.79-1.15
							c-0.1,0.14,2.54,1.69,5.88,5.25c3.32,3.54,7.18,9.16,10.07,16.02c1.61,3.72,2.74,7.04,3.54,9.86c0.92,3.09,1.53,5.93,2,8.33
							c0.44,2.4,0.69,4.36,0.85,5.72C37.27,395.46,37.36,396.22,37.4,396.21z"/>
					</g>
				</g>
			</g>
		</g>
		<g>
			<g>
				<polygon class="st3" points="21.08,426.01 22.77,449.2 52.56,449.2 54.25,426.01 				"/>
			</g>
		</g>
		<g>
			<g>
				<rect x="18.2" y="416.87" class="st3" width="39.61" height="9.14"/>
			</g>
		</g>
		<g>
			<g>
				<polygon class="st2" points="18.2,448.32 18.2,450.85 20.06,450.85 57.15,450.85 57.15,448.32 				"/>
			</g>
		</g>
		<g>
			<g>
				<polygon class="st2" points="21.88,455.31 20.06,450.85 55.73,450.85 53.61,455.31 				"/>
			</g>
		</g>
		<g>
			<g>
				<g>
					<path class="st11" d="M53.7,433.59c0.01,0.01-0.04,0.08-0.14,0.21c-0.12,0.16-0.26,0.35-0.45,0.59c-0.42,0.54-1,1.29-1.74,2.22
						l-0.08,0.1l-0.07-0.1c-1.09-1.51-2.55-3.52-4.26-5.9h0.25c-1.27,1.8-2.68,3.8-4.2,5.94l-0.13,0.19l-0.15-0.18
						c-1.55-1.84-3.23-3.84-4.98-5.92l0.29,0c-0.09,0.11-0.18,0.23-0.27,0.34c-1.54,1.94-3.04,3.81-4.45,5.58l-0.15,0.19l-0.14-0.19
						c-1.51-2.14-2.92-4.14-4.2-5.94l0.24,0.01c-2.07,2.36-3.83,4.36-5.17,5.89l-0.09,0.1l-0.07-0.12
						c-0.68-1.15-1.23-2.06-1.62-2.72c-0.17-0.3-0.31-0.53-0.42-0.72c-0.09-0.17-0.13-0.25-0.13-0.26c0.01,0,0.07,0.07,0.17,0.23
						c0.12,0.18,0.27,0.41,0.46,0.7c0.41,0.65,0.98,1.55,1.7,2.67l-0.16-0.01c1.33-1.55,3.05-3.58,5.09-5.96l0.13-0.15l0.12,0.16
						c1.29,1.8,2.71,3.79,4.24,5.92l-0.29-0.01c1.41-1.77,2.9-3.65,4.44-5.59c0.09-0.12,0.19-0.24,0.27-0.34l0.14-0.18l0.15,0.17
						c1.74,2.08,3.42,4.09,4.96,5.93l-0.28,0.01c1.53-2.14,2.96-4.13,4.24-5.91l0.12-0.17l0.12,0.17c1.68,2.4,3.11,4.44,4.17,5.96
						l-0.15,0c0.76-0.91,1.37-1.64,1.81-2.16c0.2-0.23,0.36-0.41,0.48-0.56C53.63,433.65,53.69,433.59,53.7,433.59z"/>
				</g>
			</g>
		</g>
		<g>
			<g>
				<g>
					<path class="st2" d="M54.67,425.86c0,0.1-7.46,0.19-16.67,0.19c-9.21,0-16.67-0.08-16.67-0.19c0-0.1,7.46-0.19,16.67-0.19
						C47.2,425.67,54.67,425.76,54.67,425.86z"/>
				</g>
			</g>
		</g>
		<g>
			<g>
				<g>
					<path class="st3" d="M56.17,451.1c0,0.1-8.11,0.19-18.12,0.19c-10.01,0-18.12-0.08-18.12-0.19c0-0.1,8.11-0.19,18.12-0.19
						C48.06,450.91,56.17,451,56.17,451.1z"/>
				</g>
			</g>
		</g>
	</g>
	<g>
		<g>
			<polygon class="st3" points="408.37,184.12 387.67,270.68 393.46,270.68 413.85,184.12 			"/>
		</g>
		<g>
			<path class="st3" d="M400.42,241.13c-0.37,1.59,9.37,48.77,9.37,48.77h-4.69l-7.36-37.39L400.42,241.13z"/>
		</g>
	</g>
	<g>
		<g>
			<g>
				<g>
					<rect x="372.39" y="352.28" class="st4" width="96.95" height="102.78"/>
				</g>
				<g>
					<rect x="469.34" y="367.3" class="st3" width="4.76" height="4.76"/>
				</g>
				<g>
					<rect x="469.34" y="382.42" class="st3" width="4.76" height="4.76"/>
				</g>
				<g>
					<rect x="469.34" y="397.53" class="st3" width="4.76" height="4.76"/>
				</g>
				<g>
					<rect x="469.34" y="412.65" class="st3" width="4.76" height="4.76"/>
				</g>
				<g>
					<g>
						<path class="st3" d="M474.28,398.92c-0.01-0.04,0.51-0.16,1.46-0.32c0.95-0.16,2.34-0.38,4.08-0.39c1.72,0,3.89,0.3,5.89,1.55
							c0.99,0.63,1.92,1.51,2.52,2.66c0.61,1.15,0.86,2.51,0.75,3.86c-0.1,1.36-0.55,2.65-1.24,3.73c-0.68,1.08-1.57,1.96-2.51,2.65
							c-1.89,1.38-3.96,1.98-5.67,2.24c-1.72,0.26-3.14,0.2-4.1,0.14c-0.96-0.07-1.49-0.17-1.49-0.21c0-0.04,0.54-0.02,1.49-0.01
							c0.96,0,2.35-0.01,4.02-0.31c1.66-0.3,3.64-0.93,5.42-2.26c1.78-1.3,3.32-3.44,3.49-6c0.1-1.26-0.13-2.51-0.68-3.56
							c-0.54-1.05-1.39-1.88-2.31-2.48c-1.87-1.21-3.93-1.54-5.62-1.59c-1.7-0.05-3.09,0.12-4.04,0.2
							C474.82,398.92,474.28,398.96,474.28,398.92z"/>
					</g>
				</g>
				<g>
					<g>
						<path class="st3" d="M473.09,383.9c-0.01-0.02,0.15-0.12,0.45-0.28c0.31-0.16,0.78-0.37,1.41-0.57
							c1.25-0.4,3.21-0.77,5.57-0.31c0.59,0.13,1.21,0.33,1.77,0.71c0.57,0.37,1.05,0.98,1.25,1.69c0.41,1.44-0.06,3.09-1.09,4.33
							c-0.52,0.62-1.19,1.17-2.01,1.48c-0.8,0.31-1.81,0.32-2.63-0.14c-0.8-0.42-1.51-1.25-1.51-2.28c0-1.02,0.68-1.91,1.54-2.36
							c0.88-0.45,1.88-0.47,2.77-0.29c0.9,0.18,1.73,0.6,2.42,1.15c1.38,1.1,2.24,2.71,2.42,4.32c0.19,1.63-0.4,3.18-1.24,4.3
							c-0.85,1.15-1.92,1.96-2.98,2.52c-2.15,1.09-4.1,1.29-5.4,1.41c-0.66,0.05-1.17,0.07-1.51,0.07c-0.35,0-0.53-0.01-0.53-0.03
							c0-0.04,0.72-0.1,2.02-0.27c1.28-0.19,3.2-0.45,5.24-1.54c1-0.55,2.01-1.35,2.79-2.44c0.78-1.07,1.29-2.49,1.1-3.97
							c-0.17-1.47-0.98-2.94-2.24-3.94c-0.63-0.5-1.38-0.87-2.19-1.04c-0.8-0.16-1.68-0.13-2.4,0.24c-0.71,0.37-1.25,1.1-1.24,1.85
							c-0.01,0.75,0.54,1.44,1.21,1.79c0.67,0.38,1.47,0.38,2.18,0.12c0.71-0.26,1.32-0.74,1.79-1.3c0.95-1.12,1.38-2.63,1.04-3.87
							c-0.34-1.27-1.57-1.9-2.67-2.14c-2.26-0.5-4.18-0.2-5.42,0.13C473.76,383.6,473.12,383.95,473.09,383.9z"/>
					</g>
				</g>
				<g>
					<g>
						<path class="st3" d="M473.14,369.15c-0.01-0.03,0.36-0.15,1.06-0.19c0.69-0.05,1.72,0.02,2.91,0.41
							c1.18,0.4,2.53,1.16,3.62,2.44c1.1,1.26,1.82,3.07,1.88,5c0.05,1.93-0.55,3.78-1.57,5.11c-1.01,1.34-2.31,2.18-3.47,2.66
							c-1.17,0.47-2.19,0.59-2.88,0.59c-0.7,0-1.07-0.1-1.07-0.13c-0.01-0.13,1.58,0.16,3.79-0.82c1.08-0.5,2.28-1.33,3.21-2.6
							c0.93-1.25,1.47-2.97,1.42-4.78c-0.06-1.81-0.71-3.49-1.71-4.68c-1-1.21-2.25-1.97-3.36-2.4
							C474.71,368.89,473.14,369.27,473.14,369.15z"/>
					</g>
				</g>
				<g>
					<g>
						<path class="st3" d="M401.18,297.67c0,0,0.39,0.62,0.82,1.92c0.43,1.3,0.9,3.27,1.29,5.84c0.4,2.57,0.74,5.73,1.08,9.39
							c0.35,3.67,0.65,7.85,1.24,12.44c0.15,1.15,0.33,2.32,0.57,3.5c0.24,1.18,0.53,2.39,1.05,3.5c0.55,1.06,1.47,2.04,2.38,2.94
							c0.94,0.9,1.99,1.71,3.14,2.42c2.29,1.41,4.98,2.38,7.83,2.66c2.84,0.29,5.88-0.11,8.56-1.48c2.69-1.33,4.87-3.87,5.53-6.95
							c0.33-1.52,0.26-3.16-0.33-4.62c-0.59-1.47-1.68-2.73-3.01-3.64c-1.35-0.89-2.94-1.46-4.59-1.53
							c-1.63-0.06-3.32,0.36-4.64,1.37c-0.66,0.49-1.22,1.12-1.57,1.86c-0.35,0.73-0.46,1.57-0.3,2.37
							c0.32,1.62,1.51,3.03,3.01,3.82c1.51,0.82,3.24,1.15,4.95,1.37c1.72,0.23,3.45,0.33,5.16,0.36c3.43,0.06,6.81-0.21,10.12-0.57
							c6.61-0.74,13-1.8,19.16-1.87c6.14-0.1,12.1,0.79,17.06,3.22c2.47,1.21,4.67,2.8,6.35,4.74c1.71,1.92,2.79,4.23,3.3,6.52
							c0.99,4.62-0.07,9.01-1.88,12.23c-1.84,3.25-4.31,5.42-6.44,6.88c-2.16,1.46-4.04,2.25-5.32,2.72c-1.29,0.46-2,0.6-2,0.6
							s0.17-0.07,0.5-0.18c0.33-0.11,0.82-0.28,1.46-0.53c1.26-0.5,3.12-1.32,5.24-2.79c2.1-1.47,4.51-3.65,6.29-6.85
							c1.75-3.17,2.77-7.49,1.77-11.99c-0.51-2.23-1.57-4.45-3.24-6.32c-1.64-1.88-3.8-3.43-6.23-4.61
							c-4.88-2.37-10.76-3.24-16.85-3.12c-6.12,0.08-12.47,1.15-19.11,1.9c-3.32,0.36-6.72,0.64-10.19,0.58
							c-1.73-0.03-3.48-0.13-5.22-0.36c-1.74-0.22-3.53-0.56-5.15-1.43c-1.61-0.86-2.93-2.38-3.29-4.21
							c-0.18-0.91-0.05-1.89,0.35-2.72c0.4-0.84,1.03-1.53,1.74-2.06c1.44-1.09,3.26-1.54,5-1.47c1.76,0.08,3.44,0.68,4.87,1.63
							c1.41,0.97,2.58,2.31,3.21,3.89c0.63,1.58,0.7,3.33,0.35,4.94c-0.71,3.25-3.02,5.92-5.82,7.3c-2.8,1.42-5.93,1.82-8.85,1.51
							c-2.93-0.3-5.68-1.31-8.02-2.76c-1.17-0.73-2.25-1.57-3.2-2.49c-0.94-0.95-1.83-1.89-2.45-3.07
							c-0.55-1.19-0.82-2.42-1.07-3.61c-0.23-1.2-0.41-2.38-0.55-3.53c-0.57-4.61-0.84-8.8-1.16-12.47
							c-0.31-3.67-0.61-6.83-0.98-9.39c-0.35-2.57-0.78-4.53-1.18-5.84c-0.2-0.65-0.37-1.14-0.51-1.46
							C401.24,297.85,401.18,297.67,401.18,297.67z"/>
					</g>
				</g>
			</g>
			<g>
				<g>
					<path class="st3" d="M463.83,450.77c0,0-0.01-0.16-0.01-0.45c0-0.31-0.01-0.75-0.01-1.31c-0.01-1.17-0.02-2.88-0.03-5.1
						c-0.02-4.46-0.04-10.98-0.07-19.25c-0.03-16.54-0.07-40.12-0.13-68.33l0.25,0.25c-25.66,0.01-55.69,0.02-87.64,0.04h-0.01
						l0.28-0.28c-0.02,34.72-0.03,67.17-0.04,94.44l-0.24-0.24c26.31,0.05,48.19,0.09,63.51,0.12c7.66,0.03,13.68,0.05,17.8,0.06
						c2.05,0.01,3.62,0.02,4.7,0.03C463.27,450.75,463.83,450.77,463.83,450.77s-0.53,0.02-1.58,0.03
						c-1.07,0.01-2.63,0.02-4.66,0.03c-4.11,0.01-10.11,0.04-17.75,0.06c-15.36,0.03-37.29,0.07-63.66,0.12l-0.24,0l0-0.24
						c-0.01-27.28-0.03-59.72-0.04-94.44l0-0.28h0.28h0.01c31.95,0.01,61.98,0.02,87.64,0.04h0.25l0,0.25
						c-0.05,28.27-0.1,51.91-0.13,68.49c-0.03,8.25-0.05,14.75-0.07,19.2c-0.01,2.2-0.02,3.89-0.03,5.05
						c-0.01,0.56-0.01,0.98-0.01,1.29C463.84,450.63,463.83,450.77,463.83,450.77z"/>
				</g>
			</g>
		</g>
		<g>
			<g>
				<path class="st3" d="M439.15,367.94c0,0.25-0.2,0.45-0.45,0.45c-0.25,0-0.45-0.2-0.45-0.45c0-0.25,0.2-0.45,0.45-0.45
					C438.94,367.49,439.15,367.69,439.15,367.94z"/>
			</g>
			<g>
				<path class="st3" d="M441.62,367.94c0,0.25-0.2,0.45-0.45,0.45c-0.25,0-0.45-0.2-0.45-0.45c0-0.25,0.2-0.45,0.45-0.45
					C441.42,367.49,441.62,367.69,441.62,367.94z"/>
			</g>
			<g>
				<path class="st3" d="M444.1,367.94c0,0.25-0.2,0.45-0.45,0.45c-0.25,0-0.45-0.2-0.45-0.45c0-0.25,0.2-0.45,0.45-0.45
					C443.9,367.49,444.1,367.69,444.1,367.94z"/>
			</g>
			<g>
				<path class="st3" d="M446.58,367.94c0,0.25-0.2,0.45-0.45,0.45c-0.25,0-0.45-0.2-0.45-0.45c0-0.25,0.2-0.45,0.45-0.45
					C446.37,367.49,446.58,367.69,446.58,367.94z"/>
			</g>
			<g>
				<path class="st3" d="M449.05,367.94c0,0.25-0.2,0.45-0.45,0.45c-0.25,0-0.45-0.2-0.45-0.45c0-0.25,0.2-0.45,0.45-0.45
					C448.85,367.49,449.05,367.69,449.05,367.94z"/>
			</g>
			<g>
				<path class="st3" d="M451.53,367.94c0,0.25-0.2,0.45-0.45,0.45c-0.25,0-0.45-0.2-0.45-0.45c0-0.25,0.2-0.45,0.45-0.45
					C451.33,367.49,451.53,367.69,451.53,367.94z"/>
			</g>
			<g>
				<path class="st3" d="M454,367.94c0,0.25-0.2,0.45-0.45,0.45c-0.25,0-0.45-0.2-0.45-0.45c0-0.25,0.2-0.45,0.45-0.45
					C453.8,367.49,454,367.69,454,367.94z"/>
			</g>
			<g>
				<circle class="st3" cx="452.41" cy="369.6" r="0.45"/>
			</g>
			<g>
				<circle class="st3" cx="449.88" cy="369.6" r="0.45"/>
			</g>
			<g>
				<path class="st3" d="M447.8,369.6c0,0.25-0.2,0.45-0.45,0.45s-0.45-0.2-0.45-0.45c0-0.25,0.2-0.45,0.45-0.45
					S447.8,369.35,447.8,369.6z"/>
			</g>
			<g>
				<circle class="st3" cx="444.81" cy="369.6" r="0.45"/>
			</g>
			<g>
				<circle class="st3" cx="442.28" cy="369.6" r="0.45"/>
			</g>
			<g>
				<path class="st3" d="M440.19,369.6c0,0.25-0.2,0.45-0.45,0.45c-0.25,0-0.45-0.2-0.45-0.45c0-0.25,0.2-0.45,0.45-0.45
					C439.99,369.15,440.19,369.35,440.19,369.6z"/>
			</g>
			<g>
				<path class="st3" d="M439.15,371.48c0,0.25-0.2,0.45-0.45,0.45c-0.25,0-0.45-0.2-0.45-0.45c0-0.25,0.2-0.45,0.45-0.45
					C438.94,371.03,439.15,371.24,439.15,371.48z"/>
			</g>
			<g>
				<path class="st3" d="M441.62,371.48c0,0.25-0.2,0.45-0.45,0.45c-0.25,0-0.45-0.2-0.45-0.45c0-0.25,0.2-0.45,0.45-0.45
					C441.42,371.03,441.62,371.24,441.62,371.48z"/>
			</g>
			<g>
				<path class="st3" d="M444.1,371.48c0,0.25-0.2,0.45-0.45,0.45c-0.25,0-0.45-0.2-0.45-0.45c0-0.25,0.2-0.45,0.45-0.45
					C443.9,371.03,444.1,371.24,444.1,371.48z"/>
			</g>
			<g>
				<path class="st3" d="M446.58,371.48c0,0.25-0.2,0.45-0.45,0.45c-0.25,0-0.45-0.2-0.45-0.45c0-0.25,0.2-0.45,0.45-0.45
					C446.37,371.03,446.58,371.24,446.58,371.48z"/>
			</g>
			<g>
				<path class="st3" d="M449.05,371.48c0,0.25-0.2,0.45-0.45,0.45c-0.25,0-0.45-0.2-0.45-0.45c0-0.25,0.2-0.45,0.45-0.45
					C448.85,371.03,449.05,371.24,449.05,371.48z"/>
			</g>
			<g>
				<path class="st3" d="M451.53,371.48c0,0.25-0.2,0.45-0.45,0.45c-0.25,0-0.45-0.2-0.45-0.45c0-0.25,0.2-0.45,0.45-0.45
					C451.33,371.03,451.53,371.24,451.53,371.48z"/>
			</g>
			<g>
				<path class="st3" d="M454,371.48c0,0.25-0.2,0.45-0.45,0.45c-0.25,0-0.45-0.2-0.45-0.45c0-0.25,0.2-0.45,0.45-0.45
					C453.8,371.03,454,371.24,454,371.48z"/>
			</g>
			<g>
				<path class="st3" d="M452.86,373.15c0,0.25-0.2,0.45-0.45,0.45s-0.45-0.2-0.45-0.45c0-0.25,0.2-0.45,0.45-0.45
					S452.86,372.9,452.86,373.15z"/>
			</g>
			<g>
				<path class="st3" d="M450.33,373.15c0,0.25-0.2,0.45-0.45,0.45c-0.25,0-0.45-0.2-0.45-0.45c0-0.25,0.2-0.45,0.45-0.45
					C450.13,372.7,450.33,372.9,450.33,373.15z"/>
			</g>
			<g>
				<path class="st3" d="M447.8,373.15c0,0.25-0.2,0.45-0.45,0.45s-0.45-0.2-0.45-0.45c0-0.25,0.2-0.45,0.45-0.45
					S447.8,372.9,447.8,373.15z"/>
			</g>
			<g>
				<path class="st3" d="M445.26,373.15c0,0.25-0.2,0.45-0.45,0.45s-0.45-0.2-0.45-0.45c0-0.25,0.2-0.45,0.45-0.45
					S445.26,372.9,445.26,373.15z"/>
			</g>
			<g>
				<path class="st3" d="M442.73,373.15c0,0.25-0.2,0.45-0.45,0.45c-0.25,0-0.45-0.2-0.45-0.45c0-0.25,0.2-0.45,0.45-0.45
					C442.53,372.7,442.73,372.9,442.73,373.15z"/>
			</g>
			<g>
				<path class="st3" d="M440.19,373.15c0,0.25-0.2,0.45-0.45,0.45c-0.25,0-0.45-0.2-0.45-0.45c0-0.25,0.2-0.45,0.45-0.45
					C439.99,372.7,440.19,372.9,440.19,373.15z"/>
			</g>
			<g>
				<path class="st3" d="M439.15,375.03c0,0.25-0.2,0.45-0.45,0.45c-0.25,0-0.45-0.2-0.45-0.45c0-0.25,0.2-0.45,0.45-0.45
					C438.94,374.58,439.15,374.78,439.15,375.03z"/>
			</g>
			<g>
				<path class="st3" d="M441.62,375.03c0,0.25-0.2,0.45-0.45,0.45c-0.25,0-0.45-0.2-0.45-0.45c0-0.25,0.2-0.45,0.45-0.45
					C441.42,374.58,441.62,374.78,441.62,375.03z"/>
			</g>
			<g>
				<path class="st3" d="M444.1,375.03c0,0.25-0.2,0.45-0.45,0.45c-0.25,0-0.45-0.2-0.45-0.45c0-0.25,0.2-0.45,0.45-0.45
					C443.9,374.58,444.1,374.78,444.1,375.03z"/>
			</g>
			<g>
				<path class="st3" d="M446.58,375.03c0,0.25-0.2,0.45-0.45,0.45c-0.25,0-0.45-0.2-0.45-0.45c0-0.25,0.2-0.45,0.45-0.45
					C446.37,374.58,446.58,374.78,446.58,375.03z"/>
			</g>
			<g>
				<path class="st3" d="M449.05,375.03c0,0.25-0.2,0.45-0.45,0.45c-0.25,0-0.45-0.2-0.45-0.45c0-0.25,0.2-0.45,0.45-0.45
					C448.85,374.58,449.05,374.78,449.05,375.03z"/>
			</g>
			<g>
				<path class="st3" d="M451.53,375.03c0,0.25-0.2,0.45-0.45,0.45c-0.25,0-0.45-0.2-0.45-0.45c0-0.25,0.2-0.45,0.45-0.45
					C451.33,374.58,451.53,374.78,451.53,375.03z"/>
			</g>
			<g>
				<path class="st3" d="M454,375.03c0,0.25-0.2,0.45-0.45,0.45c-0.25,0-0.45-0.2-0.45-0.45c0-0.25,0.2-0.45,0.45-0.45
					C453.8,374.58,454,374.78,454,375.03z"/>
			</g>
			<g>
				<circle class="st3" cx="452.41" cy="376.7" r="0.45"/>
			</g>
			<g>
				<circle class="st3" cx="449.88" cy="376.7" r="0.45"/>
			</g>
			<g>
				<path class="st3" d="M447.8,376.7c0,0.25-0.2,0.45-0.45,0.45s-0.45-0.2-0.45-0.45c0-0.25,0.2-0.45,0.45-0.45
					S447.8,376.45,447.8,376.7z"/>
			</g>
			<g>
				<circle class="st3" cx="444.81" cy="376.7" r="0.45"/>
			</g>
			<g>
				<circle class="st3" cx="442.28" cy="376.7" r="0.45"/>
			</g>
			<g>
				<path class="st3" d="M440.19,376.7c0,0.25-0.2,0.45-0.45,0.45c-0.25,0-0.45-0.2-0.45-0.45c0-0.25,0.2-0.45,0.45-0.45
					C439.99,376.25,440.19,376.45,440.19,376.7z"/>
			</g>
		</g>
	</g>
	<g>
		<g>
			<g>
				<path class="st11" d="M404.88,266.41c0,0,0.63-0.04,1.77,0.31c1.12,0.34,2.74,1.14,4.28,2.8c1.55,1.64,2.85,4.14,3.79,7.17
					c0.94,3.03,1.8,6.55,2.39,10.5c1.21,7.9,1.38,17.45,0.69,27.98c-0.26,2.62-0.83,5.41-2.43,7.76c-0.79,1.17-1.81,2.22-3.06,2.97
					c-1.24,0.75-2.74,1.17-4.24,1.01c-1.48-0.15-2.95-0.77-4.03-1.87c-0.53-0.55-0.96-1.23-1.19-1.97
					c-0.24-0.76-0.23-1.58-0.03-2.34c0.41-1.51,1.5-2.86,3.03-3.42c0.76-0.28,1.63-0.27,2.4,0.01c0.77,0.28,1.42,0.81,1.91,1.45
					c1,1.28,1.29,2.98,1.06,4.51c-0.22,1.55-0.84,2.96-1.57,4.27c-1.49,2.62-3.66,4.78-6.19,6.24c-5.07,2.97-11.41,2.8-16.09,0.22
					c-2.36-1.27-4.32-3.07-5.87-5.06c-1.56-1.99-2.72-4.17-3.56-6.38c-1.68-4.43-2.17-8.85-2.38-12.83
					c-0.22-3.99,0.01-7.6-0.39-10.73c-0.2-1.56-0.52-2.99-1.01-4.24c-0.48-1.25-1.13-2.31-1.82-3.17c-1.38-1.74-2.94-2.61-4.03-2.98
					c-1.1-0.38-1.74-0.37-1.73-0.41c0,0,0.63-0.04,1.77,0.31c1.12,0.34,2.73,1.2,4.17,2.95c0.71,0.87,1.39,1.93,1.9,3.21
					c0.51,1.27,0.86,2.73,1.07,4.3c0.43,3.16,0.23,6.78,0.47,10.75c0.23,3.95,0.74,8.33,2.42,12.68c0.84,2.16,1.99,4.3,3.52,6.24
					c1.52,1.94,3.43,3.68,5.72,4.91c4.53,2.48,10.68,2.63,15.56-0.25c2.44-1.41,4.54-3.5,5.98-6.04c0.71-1.27,1.3-2.64,1.5-4.07
					c0.21-1.43-0.06-2.94-0.94-4.08c-0.44-0.56-1.01-1.02-1.66-1.26c-0.65-0.23-1.37-0.24-2.02,0c-1.31,0.47-2.32,1.69-2.68,3.03
					c-0.39,1.35,0.11,2.8,1.08,3.78c0.96,0.99,2.32,1.57,3.68,1.71c1.37,0.15,2.74-0.23,3.9-0.93c1.17-0.7,2.14-1.69,2.89-2.8
					c1.54-2.24,2.1-4.93,2.36-7.51c0.72-10.47,0.59-20.01-0.57-27.87c-0.56-3.94-1.39-7.44-2.29-10.47
					c-0.91-3.02-2.15-5.48-3.65-7.12c-1.48-1.65-3.06-2.47-4.16-2.84C405.5,266.44,404.87,266.45,404.88,266.41z"/>
			</g>
		</g>
		<g>
			<rect x="360.25" y="282.13" class="st11" width="36.1" height="6.88"/>
		</g>
	</g>
	<g>
		<g>
			<g>
				<rect x="88.71" y="353.23" class="st3" width="47.08" height="101.35"/>
			</g>
			<g>
				<g>
					<path class="st2" d="M131.74,443.9c0,0-0.01-0.15-0.02-0.44c0-0.3-0.01-0.72-0.02-1.26c-0.01-1.12-0.02-2.75-0.03-4.85
						c-0.02-4.24-0.04-10.38-0.07-18.11c-0.03-15.45-0.08-37.2-0.13-62.51l0.27,0.27c-12.22,0-25.55,0.01-39.39,0.01h-0.01
						l0.28-0.28c-0.03,33.86-0.06,64.61-0.08,87.17l-0.2-0.2c12.13,0.05,21.95,0.08,28.76,0.11c3.4,0.02,6.04,0.04,7.86,0.05
						c0.89,0.01,1.57,0.02,2.06,0.02C131.49,443.89,131.74,443.9,131.74,443.9s-0.22,0.01-0.67,0.02c-0.48,0.01-1.15,0.01-2.02,0.02
						c-1.81,0.01-4.44,0.03-7.81,0.05c-6.84,0.03-16.71,0.06-28.89,0.11l-0.2,0l0-0.21c-0.02-22.56-0.05-53.31-0.08-87.17l0-0.28
						h0.28h0.01c13.84,0.01,27.16,0.01,39.39,0.01h0.27l0,0.27c-0.05,25.39-0.1,47.2-0.13,62.7c-0.03,7.7-0.06,13.82-0.07,18.04
						c-0.01,2.08-0.03,3.68-0.03,4.79c-0.01,0.53-0.01,0.93-0.02,1.23C131.75,443.77,131.74,443.9,131.74,443.9z"/>
				</g>
			</g>
			<g>
				<g>
					<path class="st2" d="M129.31,364.11c-0.02-0.02-0.03-0.38-0.05-1.06c-0.02-0.72-0.04-1.7-0.07-2.94l0.12,0.12
						c-6.09,0.09-19.15,0.16-34.25,0.16h0c0.13-0.13-0.28,0.28,0.28-0.28v0v0v0.01v0.02v0.03v0.06v0.13v0.26l0,0.51
						c0,0.34,0,0.68,0,1.01c0,0.67,0,1.33,0,1.96l-0.28-0.28c9.58,0.01,18.1,0.06,24.26,0.12c3.04,0.03,5.51,0.06,7.29,0.08
						c0.82,0.02,1.48,0.03,1.99,0.04C129.05,364.09,129.3,364.1,129.31,364.11c0.01,0.01-0.21,0.03-0.64,0.04
						c-0.49,0.01-1.13,0.02-1.93,0.04c-1.76,0.02-4.21,0.05-7.22,0.08c-6.15,0.06-14.76,0.11-24.46,0.12l-0.28,0l0-0.28
						c0-0.64,0-1.29,0-1.96c0-0.33,0-0.67,0-1.01l0-0.51v-0.26v-0.13v-0.06v-0.03v-0.02v-0.01v0v0c0.57-0.57,0.16-0.16,0.28-0.28h0
						c15.1,0,28.16,0.06,34.25,0.16l0.13,0l0,0.12c-0.03,1.27-0.05,2.27-0.07,3.01C129.34,363.8,129.33,364.13,129.31,364.11z"/>
				</g>
			</g>
			<g>
				<g>
					<path class="st2" d="M98.5,366.98c0,0.16-0.71,0.28-1.58,0.28c-0.87,0-1.58-0.13-1.58-0.28s0.71-0.28,1.58-0.28
						C97.8,366.7,98.5,366.83,98.5,366.98z"/>
				</g>
			</g>
			<g>
				<g>
					<path class="st2" d="M128.4,372.21c0,0.16-7.29,0.28-16.28,0.28c-8.99,0-16.28-0.13-16.28-0.28s7.29-0.28,16.28-0.28
						C121.1,371.93,128.4,372.06,128.4,372.21z"/>
				</g>
			</g>
			<g>
				<g>
					<path class="st2" d="M128.54,378.53c0,0.16-7.17,0.28-16,0.28c-8.84,0-16-0.13-16-0.28c0-0.16,7.16-0.28,16-0.28
						C121.37,378.25,128.54,378.37,128.54,378.53z"/>
				</g>
			</g>
			<g>
				<circle class="st4" cx="112.11" cy="393.29" r="2.59"/>
			</g>
			<g>
				<g>
					<path class="st2" d="M104.81,393.17c0,0.16-1.55,0.28-3.46,0.28c-1.91,0-3.46-0.13-3.46-0.28c0-0.16,1.55-0.28,3.46-0.28
						C103.26,392.89,104.81,393.01,104.81,393.17z"/>
				</g>
			</g>
			<g>
				<g>
					<path class="st2" d="M125.84,392.5c0,0.16-1.48,0.28-3.3,0.28c-1.82,0-3.3-0.13-3.3-0.28c0-0.16,1.48-0.28,3.3-0.28
						C124.37,392.22,125.84,392.35,125.84,392.5z"/>
				</g>
			</g>
		</g>
		<g>
			<g>
				<path class="st3" d="M90.33,404.09c0,0-0.62-0.03-1.76-0.32c-1.13-0.3-2.8-0.9-4.66-2.16c-1.86-1.24-3.9-3.17-5.62-5.86
					c-1.73-2.68-3.12-6.08-4.1-9.96c-0.99-3.87-1.64-8.27-1.3-12.98c0.32-4.69,1.76-9.75,4.94-14.05c1.57-2.15,3.55-4.09,5.9-5.61
					c1.18-0.75,2.45-1.39,3.79-1.88c1.35-0.48,2.76-0.81,4.19-1c2.87-0.4,5.81-0.34,8.75-0.52c2.92-0.17,5.93-0.63,8.6-1.98
					c2.67-1.31,4.77-3.71,5.34-6.56c0.65-2.81-0.08-5.85-1.93-7.95c-1.81-2.1-4.55-3.4-7.21-3.24c-1.32,0.09-2.63,0.53-3.63,1.34
					c-1,0.8-1.6,2.04-1.52,3.28c0.18,2.5,2.47,4.59,4.85,4.68c2.42,0.17,4.69-1.13,6.21-2.79c1.53-1.72,2.41-3.84,3.01-5.9
					c0.59-2.08,0.95-4.14,1.25-6.09c1.1-7.88,0.73-14.37,0.58-18.81c-0.11-2.2-0.2-3.92-0.26-5.12c-0.03-0.56-0.05-1.01-0.06-1.33
					c-0.01-0.3-0.01-0.45,0-0.46c0.01,0,0.03,0.15,0.06,0.45c0.03,0.33,0.07,0.77,0.12,1.33c0.09,1.17,0.23,2.89,0.37,5.12
					c0.22,4.44,0.66,10.93-0.4,18.87c-0.3,1.98-0.64,4.04-1.23,6.16c-0.6,2.1-1.48,4.29-3.08,6.09c-1.59,1.75-3.96,3.14-6.6,2.97
					c-2.62-0.12-5.11-2.33-5.33-5.15c-0.1-1.41,0.59-2.83,1.7-3.72c1.1-0.9,2.51-1.37,3.93-1.47c2.88-0.17,5.75,1.2,7.67,3.42
					c1.97,2.22,2.75,5.46,2.06,8.43c-0.32,1.48-0.99,2.92-1.99,4.1c-0.98,1.2-2.26,2.14-3.64,2.84c-2.78,1.4-5.86,1.87-8.82,2.04
					c-2.97,0.17-5.89,0.12-8.7,0.5c-1.41,0.19-2.78,0.5-4.08,0.97c-1.3,0.48-2.53,1.1-3.68,1.82c-2.29,1.47-4.24,3.36-5.77,5.46
					c-3.12,4.2-4.56,9.16-4.9,13.78c-0.35,4.65,0.26,9.01,1.22,12.85c0.95,3.85,2.3,7.22,3.98,9.88c1.67,2.67,3.66,4.59,5.48,5.85
					c1.82,1.27,3.45,1.9,4.57,2.23c0.56,0.16,0.99,0.27,1.29,0.33C90.18,404.04,90.33,404.08,90.33,404.09z"/>
			</g>
		</g>
	</g>
	<g>
		<g>
			<rect x="74.28" y="196.01" class="st3" width="111.49" height="76.56"/>
		</g>
		<g>
			<rect x="121.41" y="262.13" class="st3" width="15.18" height="28.88"/>
		</g>
	</g>
	<g>
		<g>
			<polygon class="st3" points="85.38,289.9 85.38,300.29 142.9,300.29 142.9,455.08 148.19,455.08 148.19,300.29 388.44,301.48 
				388.44,455.08 393.63,455.08 393.63,301.19 430.7,301.49 430.7,289 			"/>
		</g>
		<g>
			<polygon class="st3" points="122.19,298.27 144.87,314.61 142.9,316.5 120.03,299.27 			"/>
		</g>
		<g>
			<polygon class="st3" points="415,299.8 388.69,318.54 390.66,320.43 417.16,300.79 			"/>
		</g>
		<g>
			<rect x="169.03" y="286.07" class="st3" width="59.45" height="4.37"/>
		</g>
	</g>
</g>
</svg>
