<?xml version="1.0" encoding="utf-8"?>
<!-- Generator: Adobe Illustrator 23.0.5, SVG Export Plug-In . SVG Version: 6.00 Build 0)  -->
<svg version="1.1" xmlns="http://www.w3.org/2000/svg" xmlns:xlink="http://www.w3.org/1999/xlink" x="0px" y="0px"
	 viewBox="0 0 750 500" style="enable-background:new 0 0 750 500;" xml:space="preserve">
<style type="text/css">
	.st0{fill:#263238;}
	.st1{display:none;}
	.st2{display:inline;fill:#EBEBEB;}
	.st3{fill:#455A64;}
	.st4{fill:#E0E0E0;}
	.st5{fill:#FF725E;}
	.st6{fill:#FAFAFA;}
	.st7{opacity:0.3;}
	.st8{fill:#FFFFFF;}
	.st9{fill:#FFBE9D;}
	.st10{fill:#EB996E;}
</style>
<g id="Speech_Bubbles">
	<rect class="st0" width="750" height="500"/>
</g>
<g id="Background_Complete">
</g>
<g id="Background_Simple" class="st1">
	<path class="st2" d="M687.13,119.71l-2.25-4.51c-19-38.04-56.95-63.16-99.08-63.96c-5.42-0.1-10.84,0.18-16.23,0.88
		c-38.78,5.02-74.31,31.1-91.1,66.87c-9.87,21.04-14.19,45.84-30.95,61.81c-21.81,20.78-55.76,18.69-85.48,15.3
		c-29.72-3.38-63.7-5.39-85.42,15.49c-13.6,13.07-19.21,32.79-19.76,51.76c-1.46,50.2,29.68,97.77,72.15,123.63
		s94.45,32.15,143.74,26.38c69.04-8.09,136.72-40.37,180.33-95.24C696.68,263.25,713.03,184.94,687.13,119.71z"/>
	<circle class="st2" cx="117.9" cy="130.57" r="68.48"/>
</g>
<g id="Device">
</g>
<g id="Plant">
</g>
<g id="Floor">
</g>
<g id="Character">
	<g>
		<g>
			<g>
				<g>
					<g>
						<g>
							<g>
								<g>
									<path class="st3" d="M701.66,448.47H113.45c-8.05,0-14.57-6.52-14.57-14.57V47.97c0-4.28,3.47-7.75,7.75-7.75h602.86
										c3.72,0,6.74,3.02,6.74,6.74V433.9C716.23,441.94,709.71,448.47,701.66,448.47z"/>
								</g>
							</g>
						</g>
					</g>
					<g>
						<g>
							<g>
								<g>
									<path class="st3" d="M728.2,453.99H86.79c-7.58,0-13.72-6.14-13.72-13.72v-22h668.85v22
										C741.92,447.85,735.77,453.99,728.2,453.99z"/>
								</g>
							</g>
						</g>
					</g>
					<g>
						<g>
							<g>
								<g>
									<rect x="115.45" y="56.44" class="st4" width="582.48" height="344.76"/>
								</g>
							</g>
						</g>
					</g>
					<g>
						<g>
							<g>
								<g>
									<polygon class="st0" points="346.7,418.27 355,431.47 471.79,431.47 479.5,418.27 									"/>
								</g>
							</g>
						</g>
					</g>
				</g>
				<g>
					<g>
						<g>
							<rect x="132.74" y="76.41" class="st0" width="549.32" height="324.78"/>
						</g>
					</g>
					<g>
						<g>
							<g>
								<path class="st4" d="M174.88,391.66c-0.28,0-0.52-69.17-0.52-154.48c0-85.34,0.23-154.5,0.52-154.5
									c0.28,0,0.52,69.16,0.52,154.5C175.4,322.49,175.17,391.66,174.88,391.66z"/>
							</g>
						</g>
					</g>
					<g>
						<g>
							<g>
								<path class="st4" d="M163.8,110.69c0,0.28-4,0.52-8.92,0.52c-4.93,0-8.92-0.23-8.92-0.52c0-0.28,3.99-0.52,8.92-0.52
									C159.81,110.18,163.8,110.41,163.8,110.69z"/>
							</g>
						</g>
					</g>
					<g>
						<g>
							<g>
								<path class="st4" d="M164.49,93.16c0,0.28-4,0.52-8.92,0.52c-4.93,0-8.92-0.23-8.92-0.52c0-0.28,3.99-0.52,8.92-0.52
									C160.49,92.64,164.49,92.88,164.49,93.16z"/>
							</g>
						</g>
					</g>
					<g>
						<g>
							<g>
								<path class="st4" d="M163.8,129.59c0,0.28-4,0.52-8.92,0.52c-4.93,0-8.92-0.23-8.92-0.52c0-0.28,3.99-0.52,8.92-0.52
									C159.81,129.07,163.8,129.31,163.8,129.59z"/>
							</g>
						</g>
					</g>
					<g>
						<g>
							<g>
								<path class="st4" d="M163.8,148.49c0,0.28-4,0.52-8.92,0.52c-4.93,0-8.92-0.23-8.92-0.52c0-0.28,3.99-0.52,8.92-0.52
									C159.81,147.97,163.8,148.2,163.8,148.49z"/>
							</g>
						</g>
					</g>
					<g>
						<g>
							<g>
								<path class="st4" d="M163.8,167.39c0,0.28-4,0.52-8.92,0.52c-4.93,0-8.92-0.23-8.92-0.52c0-0.28,3.99-0.52,8.92-0.52
									C159.81,166.87,163.8,167.1,163.8,167.39z"/>
							</g>
						</g>
					</g>
					<g>
						<g>
							<g>
								<path class="st4" d="M163.8,186.28c0,0.28-4,0.52-8.92,0.52c-4.93,0-8.92-0.23-8.92-0.52c0-0.28,3.99-0.52,8.92-0.52
									C159.81,185.77,163.8,186,163.8,186.28z"/>
							</g>
						</g>
					</g>
					<g>
						<g>
							<g>
								<path class="st4" d="M163.8,205.18c0,0.28-4,0.52-8.92,0.52c-4.93,0-8.92-0.23-8.92-0.52c0-0.28,3.99-0.52,8.92-0.52
									C159.81,204.67,163.8,204.9,163.8,205.18z"/>
							</g>
						</g>
					</g>
					<g>
						<g>
							<g>
								<path class="st4" d="M163.8,224.08c0,0.28-4,0.52-8.92,0.52c-4.93,0-8.92-0.23-8.92-0.52c0-0.28,3.99-0.52,8.92-0.52
									C159.81,223.56,163.8,223.79,163.8,224.08z"/>
							</g>
						</g>
					</g>
					<g>
						<g>
							<g>
								<path class="st4" d="M163.8,242.98c0,0.28-4,0.52-8.92,0.52c-4.93,0-8.92-0.23-8.92-0.52c0-0.28,3.99-0.52,8.92-0.52
									C159.81,242.46,163.8,242.69,163.8,242.98z"/>
							</g>
						</g>
					</g>
					<g>
						<g>
							<g>
								<path class="st4" d="M163.8,261.87c0,0.28-4,0.52-8.92,0.52c-4.93,0-8.92-0.23-8.92-0.52c0-0.28,3.99-0.52,8.92-0.52
									C159.81,261.36,163.8,261.59,163.8,261.87z"/>
							</g>
						</g>
					</g>
					<g>
						<g>
							<g>
								<path class="st4" d="M163.8,280.77c0,0.28-4,0.52-8.92,0.52c-4.93,0-8.92-0.23-8.92-0.52s3.99-0.52,8.92-0.52
									C159.81,280.26,163.8,280.49,163.8,280.77z"/>
							</g>
						</g>
					</g>
					<g>
						<g>
							<g>
								<path class="st4" d="M163.8,299.67c0,0.28-4,0.52-8.92,0.52c-4.93,0-8.92-0.23-8.92-0.52c0-0.28,3.99-0.52,8.92-0.52
									C159.81,299.15,163.8,299.39,163.8,299.67z"/>
							</g>
						</g>
					</g>
					<g>
						<g>
							<g>
								<path class="st4" d="M163.8,318.57c0,0.28-4,0.52-8.92,0.52c-4.93,0-8.92-0.23-8.92-0.52c0-0.28,3.99-0.52,8.92-0.52
									C159.81,318.05,163.8,318.28,163.8,318.57z"/>
							</g>
						</g>
					</g>
					<g>
						<g>
							<g>
								<path class="st4" d="M163.8,337.47c0,0.28-4,0.52-8.92,0.52c-4.93,0-8.92-0.23-8.92-0.52c0-0.28,3.99-0.52,8.92-0.52
									C159.81,336.95,163.8,337.18,163.8,337.47z"/>
							</g>
						</g>
					</g>
					<g>
						<g>
							<g>
								<path class="st4" d="M163.8,356.36c0,0.28-4,0.52-8.92,0.52c-4.93,0-8.92-0.23-8.92-0.52s3.99-0.52,8.92-0.52
									C159.81,355.85,163.8,356.08,163.8,356.36z"/>
							</g>
						</g>
					</g>
					<g>
						<g>
							<g>
								<path class="st4" d="M163.8,375.26c0,0.28-4,0.52-8.92,0.52c-4.93,0-8.92-0.23-8.92-0.52c0-0.28,3.99-0.52,8.92-0.52
									C159.81,374.75,163.8,374.98,163.8,375.26z"/>
							</g>
						</g>
					</g>
					<g>
						<g>
							<g>
								<path class="st5" d="M235.33,109.58c0,0.28-10.37,0.52-23.16,0.52c-12.79,0-23.16-0.23-23.16-0.52
									c0-0.28,10.37-0.52,23.16-0.52C224.96,109.06,235.33,109.29,235.33,109.58z"/>
							</g>
						</g>
					</g>
					<g>
						<g>
							<g>
								<path class="st5" d="M235.33,375.26c0,0.28-10.37,0.52-23.16,0.52c-12.79,0-23.16-0.23-23.16-0.52
									c0-0.28,10.37-0.52,23.16-0.52C224.96,374.75,235.33,374.98,235.33,375.26z"/>
							</g>
						</g>
					</g>
					<g>
						<g>
							<g>
								<path class="st5" d="M299.83,148.49c0,0.28-19.4,0.52-43.33,0.52c-23.93,0-43.33-0.23-43.33-0.52
									c0-0.28,19.4-0.52,43.33-0.52C280.43,147.97,299.83,148.2,299.83,148.49z"/>
							</g>
						</g>
					</g>
					<g>
						<g>
							<g>
								<path class="st4" d="M400.03,148.49c0,0.28-19.4,0.52-43.33,0.52c-23.93,0-43.33-0.23-43.33-0.52
									c0-0.28,19.4-0.52,43.33-0.52C380.63,147.97,400.03,148.2,400.03,148.49z"/>
							</g>
						</g>
					</g>
					<g>
						<g>
							<g>
								<path class="st4" d="M361.74,167.39c0,0.28-28.59,0.52-63.85,0.52c-35.27,0-63.86-0.23-63.86-0.52
									c0-0.28,28.58-0.52,63.86-0.52C333.15,166.87,361.74,167.1,361.74,167.39z"/>
							</g>
						</g>
					</g>
					<g>
						<g>
							<g>
								<path class="st4" d="M361.74,186.28c0,0.28-28.59,0.52-63.85,0.52c-35.27,0-63.86-0.23-63.86-0.52
									c0-0.28,28.58-0.52,63.86-0.52C333.15,185.77,361.74,186,361.74,186.28z"/>
							</g>
						</g>
					</g>
					<g>
						<g>
							<g>
								<path class="st4" d="M449.64,242.98c0,0.28-28.59,0.52-63.85,0.52c-35.27,0-63.86-0.23-63.86-0.52
									c0-0.28,28.58-0.52,63.86-0.52C421.05,242.46,449.64,242.69,449.64,242.98z"/>
							</g>
						</g>
					</g>
					<g>
						<g>
							<g>
								<path class="st4" d="M411.71,205.18c0,0.28-28.59,0.52-63.85,0.52c-35.27,0-63.86-0.23-63.86-0.52
									c0-0.28,28.58-0.52,63.86-0.52C383.12,204.67,411.71,204.9,411.71,205.18z"/>
							</g>
						</g>
					</g>
					<g>
						<g>
							<g>
								<path class="st4" d="M567.77,205.18c0,0.28-28.59,0.52-63.85,0.52c-35.27,0-63.86-0.23-63.86-0.52
									c0-0.28,28.58-0.52,63.86-0.52C539.18,204.67,567.77,204.9,567.77,205.18z"/>
							</g>
						</g>
					</g>
					<g>
						<g>
							<g>
								<path class="st6" d="M513.49,167.39c0,0.28-28.59,0.52-63.85,0.52c-35.27,0-63.86-0.23-63.86-0.52
									c0-0.28,28.58-0.52,63.86-0.52C484.9,166.87,513.49,167.1,513.49,167.39z"/>
							</g>
						</g>
					</g>
					<g>
						<g>
							<g>
								<path class="st6" d="M601.71,242.98c0,0.28-28.59,0.52-63.85,0.52c-35.27,0-63.86-0.23-63.86-0.52
									c0-0.28,28.58-0.52,63.86-0.52C573.12,242.46,601.71,242.69,601.71,242.98z"/>
							</g>
						</g>
					</g>
					<g>
						<g>
							<g>
								<path class="st3" d="M584.09,186.28c0,0.28-44.4,0.52-99.15,0.52c-54.77,0-99.16-0.23-99.16-0.52
									c0-0.28,44.39-0.52,99.16-0.52C539.7,185.77,584.09,186,584.09,186.28z"/>
							</g>
						</g>
					</g>
					<g>
						<g>
							<g>
								<path class="st6" d="M235.33,129.59c0,0.28-10.37,0.52-23.16,0.52c-12.79,0-23.16-0.23-23.16-0.52
									c0-0.28,10.37-0.52,23.16-0.52C224.96,129.07,235.33,129.31,235.33,129.59z"/>
							</g>
						</g>
					</g>
					<g>
						<g>
							<g>
								<path class="st6" d="M235.33,356.36c0,0.28-10.37,0.52-23.16,0.52c-12.79,0-23.16-0.23-23.16-0.52s10.37-0.52,23.16-0.52
									C224.96,355.85,235.33,356.08,235.33,356.36z"/>
							</g>
						</g>
					</g>
					<g>
						<g>
							<g>
								<path class="st6" d="M258.28,205.18c0,0.28-10.37,0.52-23.16,0.52c-12.79,0-23.16-0.23-23.16-0.52
									c0-0.28,10.37-0.52,23.16-0.52C247.91,204.67,258.28,204.9,258.28,205.18z"/>
							</g>
						</g>
					</g>
					<g>
						<g>
							<g>
								<path class="st5" d="M629.47,205.18c0,0.28-10.37,0.52-23.16,0.52c-12.79,0-23.16-0.23-23.16-0.52
									c0-0.28,10.37-0.52,23.16-0.52C619.1,204.67,629.47,204.9,629.47,205.18z"/>
							</g>
						</g>
					</g>
					<g>
						<g>
							<g>
								<path class="st5" d="M299.83,280.66c0,0.28-19.4,0.52-43.33,0.52c-23.93,0-43.33-0.23-43.33-0.52
									c0-0.28,19.4-0.52,43.33-0.52C280.43,280.15,299.83,280.38,299.83,280.66z"/>
							</g>
						</g>
					</g>
					<g>
						<g>
							<g>
								<path class="st4" d="M400.03,280.66c0,0.28-19.4,0.52-43.33,0.52c-23.93,0-43.33-0.23-43.33-0.52
									c0-0.28,19.4-0.52,43.33-0.52C380.63,280.15,400.03,280.38,400.03,280.66z"/>
							</g>
						</g>
					</g>
					<g>
						<g>
							<g>
								<path class="st4" d="M361.74,299.56c0,0.28-28.59,0.52-63.85,0.52c-35.27,0-63.86-0.23-63.86-0.52
									c0-0.28,28.58-0.52,63.86-0.52C333.15,299.04,361.74,299.27,361.74,299.56z"/>
							</g>
						</g>
					</g>
					<g>
						<g>
							<g>
								<path class="st4" d="M361.74,318.46c0,0.28-28.59,0.52-63.85,0.52c-35.27,0-63.86-0.23-63.86-0.52
									c0-0.28,28.58-0.52,63.86-0.52C333.15,317.94,361.74,318.17,361.74,318.46z"/>
							</g>
						</g>
					</g>
					<g>
						<g>
							<g>
								<path class="st4" d="M411.71,337.35c0,0.28-28.59,0.52-63.85,0.52c-35.27,0-63.86-0.23-63.86-0.52
									c0-0.28,28.58-0.52,63.86-0.52C383.12,336.84,411.71,337.07,411.71,337.35z"/>
							</g>
						</g>
					</g>
					<g>
						<g>
							<g>
								<path class="st4" d="M567.77,337.35c0,0.28-28.59,0.52-63.85,0.52c-35.27,0-63.86-0.23-63.86-0.52
									c0-0.28,28.58-0.52,63.86-0.52C539.18,336.84,567.77,337.07,567.77,337.35z"/>
							</g>
						</g>
					</g>
					<g>
						<g>
							<g>
								<path class="st6" d="M513.49,299.56c0,0.28-28.59,0.52-63.85,0.52c-35.27,0-63.86-0.23-63.86-0.52
									c0-0.28,28.58-0.52,63.86-0.52C484.9,299.04,513.49,299.27,513.49,299.56z"/>
							</g>
						</g>
					</g>
					<g>
						<g>
							<g>
								<path class="st3" d="M584.09,318.46c0,0.28-44.4,0.52-99.15,0.52c-54.77,0-99.16-0.23-99.16-0.52
									c0-0.28,44.39-0.52,99.16-0.52C539.7,317.94,584.09,318.17,584.09,318.46z"/>
							</g>
						</g>
					</g>
					<g>
						<g>
							<g>
								<path class="st6" d="M258.28,337.35c0,0.28-10.37,0.52-23.16,0.52c-12.79,0-23.16-0.23-23.16-0.52
									c0-0.28,10.37-0.52,23.16-0.52C247.91,336.84,258.28,337.07,258.28,337.35z"/>
							</g>
						</g>
					</g>
					<g>
						<g>
							<g>
								<path class="st5" d="M629.47,337.35c0,0.28-10.37,0.52-23.16,0.52c-12.79,0-23.16-0.23-23.16-0.52
									c0-0.28,10.37-0.52,23.16-0.52C619.1,336.84,629.47,337.07,629.47,337.35z"/>
							</g>
						</g>
					</g>
				</g>
			</g>
			<g>
				<path class="st0" d="M641.81,430.2c0,0.17-118.26,0.31-264.1,0.31c-145.9,0-264.13-0.14-264.13-0.31
					c0-0.17,118.23-0.31,264.13-0.31C523.56,429.9,641.81,430.03,641.81,430.2z"/>
			</g>
		</g>
		<g>
			<g>
				<path class="st5" d="M93.81,326.62c-16.2-16.58-41.59-23.55-63.98-17.56c19.45,13.04,41.32,20.03,64.74,20.23"/>
			</g>
			<g>
				<g>
					<path class="st5" d="M72.1,249.77c2.67-18.85-4.66-40.06-18.78-53.77C52.86,214.69,60.75,235.71,72.1,249.77"/>
				</g>
				<g>
					<path class="st5" d="M83.39,285.38c-10.06-19.23-26.57-35.01-46.24-44.19c5.89,21.71,24.46,39.47,46.41,44.39"/>
				</g>
				<g>
					<path class="st5" d="M85.73,292.26c-11.39,0.32-22.91-0.08-33.93-2.99c-11.01-2.91-21.56-8.51-28.89-17.24
						c22.15,0.02,44.25,6.77,62.64,19.12"/>
				</g>
				<g>
					<path class="st5" d="M79.95,269.62c5.78-21.66,15.32-36.65,32.35-48.79c1.29,10.54-1.3,21.51-7.17,30.36
						C99.26,260.04,90.16,266.7,79.95,269.62"/>
				</g>
				<g>
					<path class="st5" d="M122.94,306.98c0.3-12.59-7.82-24.96-19.48-29.7C104.4,288.47,113.19,301.41,122.94,306.98"/>
				</g>
				<g>
					<path class="st5" d="M128.38,288.72c1.29-18.1,14.15-34.84,31.3-40.76C155.75,266.06,145.28,281.13,128.38,288.72"/>
				</g>
				<g>
					<path class="st5" d="M120.18,321.13c4.02-5.74,10.57-9.32,17.35-11.09s13.87-1.93,20.87-2.08
						c-9.45,10.4-23.65,16.31-37.69,15.7"/>
				</g>
				<g>
					<path class="st5" d="M112.04,367.31c12.63-3.9,26.71-2.89,38.66,2.77c11.95,5.66,21.65,15.92,26.63,28.16
						C153.61,393.74,130.21,383.2,112.04,367.31"/>
				</g>
				<g>
					<path class="st5" d="M86.01,351.26c3.94,11.65,3.18,25.72-5.57,35.76C76.87,375.07,78.98,361.56,86.01,351.26"/>
				</g>
				<g>
					<path class="st5" d="M70.62,344.79c-1.1,14.97-10.67,29.04-24.2,35.55c-0.67,0.32-1.45,0.63-2.14,0.35
						c-1.07-0.43-1.16-1.89-1.03-3.04C44.97,362.74,56.02,348.31,70.62,344.79"/>
				</g>
				<g>
					<path class="st5" d="M60.57,343.28c-6.66,7.2-16.38,11.47-26.19,11.52c-9.81,0.05-19.57-4.13-26.3-11.26
						C24.77,341.72,44.02,340.5,60.57,343.28"/>
				</g>
				<g>
					<g>
						<g>
							<path class="st0" d="M58.07,209.9c-0.01,0,0.04,0.17,0.15,0.49c0.12,0.35,0.29,0.81,0.51,1.41c0.47,1.27,1.15,3.08,2.01,5.4
								c0.9,2.34,1.93,5.22,3.13,8.57c0.6,1.67,1.25,3.46,1.93,5.36c0.66,1.91,1.35,3.92,2.08,6.04c2.96,8.45,6.24,18.59,9.78,29.88
								c3.48,11.31,7.13,23.8,10.73,36.97c3.55,13.19,6.69,25.82,9.37,37.35c2.6,11.54,4.84,21.97,6.45,30.77
								c0.41,2.2,0.81,4.29,1.18,6.27c0.34,1.99,0.66,3.86,0.95,5.61c0.6,3.5,1.12,6.52,1.47,9c0.38,2.45,0.67,4.36,0.87,5.7
								c0.1,0.63,0.18,1.12,0.24,1.48c0.06,0.33,0.09,0.5,0.1,0.5c0.01,0,0-0.17-0.04-0.51c-0.04-0.36-0.1-0.86-0.18-1.49
								c-0.18-1.34-0.43-3.26-0.76-5.72c-0.31-2.49-0.79-5.51-1.36-9.02c-0.28-1.76-0.59-3.64-0.91-5.63
								c-0.36-1.99-0.74-4.08-1.14-6.29c-1.56-8.82-3.75-19.26-6.32-30.82c-2.65-11.54-5.78-24.18-9.32-37.38
								c-3.6-13.18-7.27-25.67-10.78-36.98c-3.58-11.29-6.9-21.42-9.92-29.85c-0.75-2.11-1.46-4.12-2.13-6.02
								c-0.7-1.89-1.36-3.67-1.98-5.34c-1.23-3.34-2.3-6.21-3.24-8.53c-0.91-2.3-1.63-4.1-2.13-5.36c-0.24-0.59-0.43-1.05-0.57-1.39
								C58.16,210.05,58.09,209.89,58.07,209.9z"/>
						</g>
					</g>
					<g>
						<g>
							<path class="st0" d="M149.72,257.62c-0.01-0.01-0.11,0.08-0.29,0.27c-0.2,0.21-0.47,0.49-0.8,0.84
								c-0.7,0.74-1.71,1.85-2.97,3.32c-2.52,2.93-6.07,7.28-9.82,13.1c-3.75,5.81-7.6,13.2-10.27,21.98
								c-2.75,8.75-4.46,18.69-6.16,29.08c-3.39,20.8-7.56,39.44-10.57,52.92c-1.52,6.71-2.75,12.15-3.61,15.96
								c-0.41,1.85-0.73,3.31-0.96,4.34c-0.1,0.47-0.17,0.84-0.23,1.13c-0.05,0.26-0.07,0.39-0.06,0.39c0.01,0,0.05-0.12,0.12-0.38
								c0.08-0.29,0.17-0.65,0.3-1.12c0.26-1.03,0.62-2.47,1.08-4.32c0.91-3.8,2.21-9.22,3.81-15.91
								c3.13-13.45,7.36-32.09,10.76-52.91c1.7-10.39,3.39-20.31,6.09-29.01c2.63-8.73,6.4-16.09,10.09-21.91
								c3.68-5.83,7.18-10.21,9.63-13.18c1.23-1.49,2.21-2.62,2.87-3.39c0.31-0.37,0.56-0.66,0.75-0.88
								C149.65,257.74,149.73,257.63,149.72,257.62z"/>
						</g>
					</g>
					<g>
						<g>
							<path class="st0" d="M55.59,342.57c0,0.02,0.21,0.06,0.6,0.11c0.47,0.05,1.04,0.11,1.73,0.19c0.38,0.04,0.8,0.08,1.25,0.12
								c0.46,0.07,0.95,0.14,1.48,0.22c1.06,0.16,2.27,0.31,3.58,0.6c0.66,0.13,1.35,0.27,2.07,0.41c0.71,0.18,1.45,0.37,2.22,0.56
								c1.54,0.35,3.14,0.91,4.84,1.43c3.35,1.18,6.97,2.69,10.56,4.66c3.59,1.99,6.76,4.29,9.47,6.58
								c1.32,1.19,2.58,2.31,3.63,3.49c1.12,1.11,2.03,2.27,2.88,3.32c0.89,1.01,1.5,2.07,2.13,2.93c0.63,0.86,1.09,1.66,1.46,2.32
								c0.35,0.6,0.64,1.09,0.89,1.49c0.21,0.34,0.33,0.51,0.35,0.5c0.02-0.01-0.06-0.2-0.23-0.56c-0.21-0.42-0.47-0.94-0.78-1.56
								c-0.34-0.68-0.77-1.5-1.38-2.39c-0.6-0.89-1.2-1.97-2.07-3.02c-0.83-1.08-1.73-2.26-2.85-3.4c-1.05-1.21-2.31-2.35-3.63-3.57
								c-2.72-2.34-5.92-4.68-9.55-6.69c-3.64-1.99-7.29-3.5-10.69-4.65c-1.72-0.5-3.34-1.05-4.9-1.38
								c-0.77-0.18-1.52-0.36-2.24-0.53c-0.73-0.13-1.42-0.25-2.09-0.37c-1.33-0.27-2.55-0.39-3.62-0.51
								c-0.53-0.06-1.02-0.12-1.49-0.17c-0.45-0.02-0.87-0.05-1.26-0.07c-0.69-0.03-1.27-0.05-1.74-0.07
								C55.8,342.54,55.59,342.55,55.59,342.57z"/>
						</g>
					</g>
				</g>
				<g>
					<g>
						<path class="st0" d="M50.84,258.02c-0.03,0.03,0.4,0.44,1.2,1.16c0.91,0.78,2.06,1.78,3.43,2.98
							c2.92,2.49,6.98,5.91,11.49,9.64c4.51,3.74,8.62,7.1,11.61,9.5c1.43,1.13,2.62,2.08,3.56,2.82c0.85,0.66,1.33,1,1.36,0.97
							s-0.4-0.45-1.21-1.16c-0.91-0.79-2.06-1.78-3.43-2.98c-2.92-2.49-6.98-5.9-11.48-9.64c-4.51-3.74-8.61-7.09-11.6-9.5
							c-1.43-1.13-2.62-2.08-3.56-2.82C51.35,258.33,50.87,257.99,50.84,258.02z"/>
					</g>
				</g>
				<g>
					<g>
						<path class="st0" d="M46.73,280.09c-0.05,0.17,8.71,2.91,19.56,6.11c10.86,3.21,19.7,5.67,19.75,5.5
							c0.05-0.17-8.71-2.91-19.57-6.11C55.63,282.39,46.78,279.92,46.73,280.09z"/>
					</g>
				</g>
				<g>
					<g>
						<path class="st0" d="M79.08,271.3c0.04,0.02,0.36-0.43,0.9-1.26c0.62-0.94,1.39-2.12,2.31-3.52
							c1.96-2.96,4.74-7.01,8.03-11.31c3.29-4.3,6.46-8.05,8.8-10.73c1.1-1.26,2.03-2.32,2.77-3.17c0.65-0.75,1-1.18,0.97-1.21
							c-0.03-0.03-0.44,0.34-1.15,1.04c-0.71,0.7-1.71,1.73-2.93,3.03c-2.43,2.61-5.66,6.32-8.97,10.64
							c-3.3,4.32-6.03,8.42-7.9,11.45c-0.93,1.52-1.66,2.76-2.14,3.63C79.29,270.79,79.04,271.28,79.08,271.3z"/>
					</g>
				</g>
				<g>
					<g>
						<path class="st0" d="M109.51,283.55c-0.08,0.05,0.75,1.32,2.06,3.38c1.31,2.06,3.08,4.92,4.92,8.15
							c1.84,3.23,3.39,6.22,4.49,8.4c1.1,2.18,1.77,3.53,1.86,3.49c0.08-0.03-0.45-1.45-1.45-3.69c-1-2.23-2.5-5.27-4.34-8.52
							c-1.85-3.25-3.69-6.08-5.1-8.08C110.53,284.68,109.57,283.51,109.51,283.55z"/>
					</g>
				</g>
				<g>
					<g>
						<path class="st0" d="M119.92,321.73c0.05,0.09,1.72-0.73,4.45-1.96c2.73-1.23,6.55-2.84,10.87-4.35
							c4.32-1.51,8.31-2.63,11.21-3.38c2.91-0.74,4.72-1.15,4.7-1.24c-0.01-0.04-0.47,0.01-1.3,0.14c-0.83,0.12-2.03,0.35-3.5,0.67
							c-2.94,0.63-6.98,1.7-11.32,3.21c-4.34,1.52-8.16,3.21-10.85,4.55c-1.35,0.67-2.43,1.24-3.16,1.66
							C120.29,321.45,119.89,321.7,119.92,321.73z"/>
					</g>
				</g>
				<g>
					<g>
						<path class="st0" d="M111.72,367.38c0,0.02,0.18,0.08,0.54,0.18c0.43,0.11,0.95,0.24,1.58,0.4c1.48,0.34,3.44,0.79,5.83,1.34
							c4.91,1.14,11.75,2.57,19.03,5.02c7.28,2.48,13.52,5.63,17.76,8.34c2.12,1.35,3.78,2.55,4.89,3.41
							c1.12,0.85,1.73,1.34,1.76,1.3c0.01-0.02-0.12-0.16-0.39-0.41c-0.28-0.25-0.67-0.64-1.22-1.08c-1.07-0.92-2.7-2.18-4.8-3.59
							c-4.2-2.83-10.47-6.07-17.79-8.57c-7.33-2.47-14.2-3.83-19.14-4.86c-2.4-0.47-4.38-0.86-5.87-1.15
							C112.5,367.46,111.73,367.33,111.72,367.38z"/>
					</g>
				</g>
				<g>
					<g>
						<path class="st0" d="M82.09,378.63c0.17,0.03,1.22-6.12,2.33-13.72c1.11-7.61,1.87-13.79,1.7-13.82
							c-0.17-0.03-1.22,6.12-2.33,13.72C82.67,372.42,81.91,378.6,82.09,378.63z"/>
					</g>
				</g>
				<g>
					<g>
						<path class="st0" d="M51.24,367.43c0.07,0.05,1.11-1.23,2.78-3.3c1.67-2.08,3.98-4.94,6.59-8.04
							c2.61-3.11,5.03-5.88,6.79-7.88c1.76-2,2.84-3.24,2.77-3.31c-0.03-0.03-0.34,0.24-0.88,0.76c-0.54,0.52-1.3,1.28-2.22,2.25
							c-1.85,1.93-4.33,4.65-6.95,7.77c-2.62,3.12-4.88,6.03-6.46,8.18c-0.79,1.07-1.41,1.96-1.83,2.58
							C51.41,367.04,51.2,367.4,51.24,367.43z"/>
					</g>
				</g>
			</g>
			<g>
				<polygon class="st5" points="132.88,396.04 132.88,411.28 129.07,411.28 115.52,454.05 85.47,454.05 72.34,411.71 67.26,411.28 
					67.26,396.04 				"/>
			</g>
			<g class="st7">
				<polygon points="132.88,396.04 132.88,411.28 129.07,411.28 115.52,454.05 85.47,454.05 72.34,411.71 67.26,411.28 
					67.26,396.04 				"/>
			</g>
			<g>
				<g>
					<path class="st0" d="M69.8,411.71c0,0.18,13.27,0.32,29.63,0.32c16.37,0,29.64-0.14,29.64-0.32c0-0.18-13.27-0.32-29.64-0.32
						C83.07,411.39,69.8,411.53,69.8,411.71z"/>
				</g>
			</g>
			<g>
				<g>
					<path class="st0" d="M48.19,313.65c-0.01,0.04,0.68,0.23,1.93,0.52c1.35,0.33,3.13,0.75,5.27,1.27c4.45,1.1,10.55,2.77,17.17,5
						c6.62,2.23,12.5,4.59,16.7,6.4c2.02,0.88,3.69,1.62,4.97,2.17c1.17,0.52,1.83,0.79,1.85,0.75c0.02-0.04-0.6-0.38-1.74-0.97
						c-1.14-0.59-2.81-1.4-4.89-2.36c-4.17-1.92-10.04-4.35-16.68-6.59c-6.64-2.23-12.79-3.84-17.27-4.83
						c-2.24-0.5-4.06-0.86-5.33-1.08C48.9,313.71,48.2,313.61,48.19,313.65z"/>
				</g>
			</g>
			<g>
				<g>
					<path class="st6" d="M79.78,435.46c0,0.18,9.31,0.32,20.79,0.32c11.49,0,20.79-0.14,20.79-0.32c0-0.18-9.31-0.32-20.79-0.32
						C89.09,435.14,79.78,435.28,79.78,435.46z"/>
				</g>
			</g>
			<g>
				<g>
					<path class="st6" d="M78.61,431.92c0,0.18,9.87,0.32,22.03,0.32c12.17,0,22.03-0.14,22.03-0.32c0-0.18-9.86-0.32-22.03-0.32
						C88.48,431.6,78.61,431.75,78.61,431.92z"/>
				</g>
			</g>
		</g>
		<g>
			<g>
				<g>
					<g>
						<g>
							<path class="st5" d="M655.72,358.27l23.67-23.4l-42.21-72.28c-4.39-5.03-9.96-8.89-16.2-11.27l-14.86-5.65l-36.95-6.78
								l-26.24,10.33c-6.63,2.61-10.67,9.37-9.83,16.45l6.86,57.77l4.04,75.22l95.33-16.54l-9.59-27.82l0.32-43.38L655.72,358.27z"
								/>
							<g>
								<g>
									<g>
										<g>
											<path class="st0" d="M630.62,352.46c0.22,0,0.28-15.03,0.13-33.56c-0.15-18.54-0.46-33.56-0.68-33.56
												c-0.22,0-0.28,15.03-0.13,33.56C630.1,337.43,630.4,352.46,630.62,352.46z"/>
										</g>
									</g>
								</g>
							</g>
						</g>
						<g>
							<g>
								<path class="st5" d="M627.13,363.48l-57.6-23.19c-4.65-1.87-7.83-6.21-8.21-11.21l-4.22-55.23c0,0,0.5-23.49-14.17-24.63
									l-8.35,3.29c-10.79,5.73-13.46,21.43-11.99,33.56c2.09,17.23,2.96,41.61,5.29,56.56c1.91,12.23,9.26,21.91,20.89,26.14
									l70.95,15.36L627.13,363.48z"/>
							</g>
						</g>
						<g>
							<g>
								<g>
									<path class="st0" d="M557.93,282.28c0.03,0,0.09,0.43,0.18,1.26c0.09,0.9,0.21,2.11,0.37,3.64
										c0.29,3.24,0.71,7.79,1.22,13.39c0.49,5.68,1.07,12.41,1.71,19.87c0.16,1.87,0.32,3.79,0.48,5.74
										c0.17,1.96,0.29,3.96,0.74,5.91c0.42,1.95,1.36,3.78,2.86,5.18c1.49,1.4,3.36,2.42,5.31,3.31
										c15.88,6.87,30.52,12.55,41.15,16.53c5.27,1.94,9.57,3.52,12.62,4.65c1.44,0.53,2.58,0.95,3.43,1.26
										c0.78,0.3,1.19,0.46,1.18,0.49c-0.01,0.03-0.43-0.09-1.23-0.34c-0.86-0.28-2.02-0.66-3.48-1.13c-3.01-1-7.36-2.5-12.7-4.42
										c-10.69-3.85-25.35-9.44-41.28-16.34c-1.98-0.9-3.93-1.96-5.52-3.45c-1.61-1.49-2.64-3.52-3.07-5.56
										c-0.46-2.04-0.57-4.06-0.73-6.02c-0.16-1.96-0.31-3.88-0.46-5.75c-0.58-7.47-1.1-14.2-1.54-19.89
										c-0.41-5.61-0.74-10.17-0.97-13.41c-0.09-1.53-0.17-2.75-0.23-3.65C557.91,282.72,557.9,282.28,557.93,282.28z"/>
								</g>
							</g>
						</g>
						<g>
							<g>
								<g>
									<path class="st0" d="M524.93,312.31c0.03,0,0.06,0.25,0.11,0.74c0.05,0.58,0.11,1.28,0.19,2.13
										c0.17,1.97,0.4,4.62,0.68,7.84c0.32,3.31,0.72,7.24,1.29,11.59c0.59,4.34,1.29,9.13,2.6,13.99
										c0.62,2.45,1.49,4.72,2.81,6.67c1.32,1.96,2.79,3.73,4.3,5.29c3.05,3.11,6.3,5.4,9.22,6.92
										c5.89,3.06,10.18,3.11,10.12,3.31c0,0.03-0.26,0.02-0.75-0.02c-0.49-0.03-1.21-0.09-2.13-0.27
										c-1.84-0.32-4.48-1.04-7.48-2.53c-3-1.48-6.35-3.76-9.48-6.9c-1.56-1.58-3.07-3.36-4.42-5.36
										c-1.38-2.01-2.31-4.43-2.93-6.89c-1.33-4.94-2.01-9.74-2.56-14.1c-0.54-4.37-0.88-8.32-1.13-11.63
										c-0.24-3.32-0.37-6.01-0.44-7.86c-0.02-0.86-0.03-1.56-0.05-2.14C524.88,312.57,524.9,312.31,524.93,312.31z"/>
								</g>
							</g>
						</g>
						<g>
							<g>
								<g>
									<path class="st0" d="M549.56,350.95c-0.08-0.02,0.17-1.25,1.05-3.07c0.87-1.81,2.49-4.15,4.84-6.17
										c2.36-2.01,4.93-3.23,6.85-3.81c1.93-0.59,3.19-0.64,3.2-0.56c0.02,0.13-1.19,0.37-3.02,1.07
										c-1.83,0.69-4.26,1.95-6.53,3.88c-2.26,1.94-3.88,4.14-4.86,5.84C550.11,349.84,549.68,350.99,549.56,350.95z"/>
								</g>
							</g>
						</g>
						<g class="st7">
							<g>
								<g>
									<path d="M610.58,356.9c-6.16-3.48-12.19-6.15-18.63-9.08c-6.44-2.93-12.75-6.68-16.96-12.37
										c-7.95-10.71-7.04-26.18-15.18-36.75c0.53,7.11,1.06,14.22,1.59,21.33c0.49,6.52-0.51,12.96,3.69,17.39
										c3.54,3.73,10.43,6.59,15.31,8.2C590.21,348.86,600.77,353.66,610.58,356.9"/>
								</g>
							</g>
						</g>
					</g>
				</g>
				<polygon class="st7" points="630.08,289.41 635.06,320.15 630.35,311.44 				"/>
				<g>
					<path class="st3" d="M556.19,270.45c0,0.04-0.48,0.08-1.33,0.1c-0.99,0.03-2.2,0.06-3.63,0.09c-3.07,0.08-7.3,0.23-11.96,0.56
						c-4.67,0.34-8.88,0.79-11.93,1.15c-1.42,0.17-2.63,0.31-3.61,0.43c-0.85,0.1-1.33,0.13-1.34,0.09
						c-0.01-0.04,0.46-0.15,1.3-0.32c0.84-0.17,2.07-0.39,3.59-0.62c3.04-0.47,7.26-0.99,11.94-1.33c4.68-0.33,8.93-0.42,12.01-0.39
						c1.54,0.02,2.78,0.05,3.64,0.1C555.72,270.36,556.19,270.41,556.19,270.45z"/>
				</g>
				<g>
					<path class="st3" d="M557.83,299.86c0.01,0.17-7.54,0.93-16.86,1.7c-9.33,0.77-16.9,1.26-16.91,1.09
						c-0.01-0.17,7.54-0.93,16.86-1.7C550.24,300.18,557.82,299.69,557.83,299.86z"/>
				</g>
				<g>
					<path class="st3" d="M560.61,330.78c0.02,0.04-0.41,0.28-1.19,0.68c-0.78,0.41-1.95,0.95-3.4,1.56
						c-2.91,1.23-7.06,2.68-11.78,3.74c-4.72,1.05-9.09,1.51-12.25,1.64c-1.58,0.06-2.86,0.07-3.75,0.04
						c-0.88-0.03-1.37-0.07-1.37-0.11c0-0.04,0.49-0.09,1.37-0.13c0.88-0.04,2.15-0.11,3.72-0.23c3.14-0.24,7.46-0.76,12.15-1.8
						c4.68-1.05,8.81-2.42,11.75-3.55c1.47-0.56,2.65-1.04,3.47-1.38C560.13,330.91,560.59,330.74,560.61,330.78z"/>
				</g>
				<g>
					<path class="st3" d="M581.09,346.64c0.1,0.17-3,1.55-5.71,4.59c-2.75,3-3.8,6.23-3.98,6.15c-0.07-0.02,0.1-0.85,0.64-2.1
						c0.53-1.25,1.49-2.9,2.89-4.45c1.4-1.55,2.95-2.67,4.14-3.33C580.25,346.82,581.06,346.57,581.09,346.64z"/>
				</g>
				<g>
					<path class="st3" d="M601.92,367c-0.15-0.03,0.52-2.91,2.26-6.06c1.73-3.17,3.78-5.28,3.89-5.17c0.14,0.12-1.67,2.36-3.36,5.47
						C603.01,364.32,602.1,367.06,601.92,367z"/>
				</g>
				<g>
					<path class="st3" d="M569.09,253.15c0.03,0.17-3.62,0.96-8.15,1.78c-4.53,0.82-8.23,1.35-8.26,1.18
						c-0.03-0.17,3.62-0.96,8.15-1.78C565.36,253.51,569.06,252.98,569.09,253.15z"/>
				</g>
				<g>
					<path class="st3" d="M624.23,255.66c-0.02,0.17-5.08-0.29-11.29-1.03c-6.22-0.74-11.24-1.47-11.22-1.64
						c0.02-0.17,5.08,0.29,11.3,1.03C619.23,254.76,624.25,255.49,624.23,255.66z"/>
				</g>
				<g>
					<path class="st3" d="M628.94,281.31c0,0.02-0.25,0.04-0.72,0.05c-0.54,0-1.22,0.01-2.07,0.02c-1.87,0-4.45-0.01-7.6-0.01
						c-6.42-0.01-15.28,0.05-25.07,0.3c-9.79,0.25-18.64,0.65-25.05,0.99c-3.14,0.17-5.72,0.3-7.59,0.4
						c-0.84,0.04-1.53,0.07-2.07,0.09c-0.47,0.01-0.72,0.01-0.72-0.01c0-0.02,0.24-0.06,0.71-0.11c0.54-0.05,1.22-0.12,2.06-0.2
						c1.79-0.17,4.38-0.37,7.58-0.59c6.4-0.45,15.26-0.92,25.06-1.17c9.79-0.25,18.67-0.24,25.08-0.12c3.21,0.06,5.81,0.13,7.6,0.2
						c0.84,0.04,1.53,0.07,2.07,0.1C628.7,281.26,628.94,281.28,628.94,281.31z"/>
				</g>
				<g>
					<path class="st3" d="M629.62,313.78c0.01,0.17-15.1,1.3-33.75,2.53c-18.66,1.23-33.78,2.09-33.79,1.92
						c-0.01-0.17,15.1-1.3,33.75-2.53C614.48,314.47,629.61,313.62,629.62,313.78z"/>
				</g>
				<g>
					<path class="st3" d="M628.01,342.4c0.01,0.04-0.44,0.23-1.27,0.54c-0.83,0.31-2.04,0.74-3.55,1.23
						c-3.02,0.99-7.23,2.22-11.94,3.36c-4.71,1.13-9.03,1.95-12.17,2.44c-1.57,0.25-2.84,0.42-3.72,0.52
						c-0.88,0.1-1.37,0.14-1.38,0.09c-0.01-0.04,0.47-0.16,1.34-0.33c1-0.19,2.23-0.43,3.69-0.71c3.11-0.6,7.4-1.48,12.1-2.61
						c4.7-1.13,8.92-2.3,11.96-3.18c1.43-0.41,2.63-0.76,3.61-1.04C627.52,342.47,628,342.36,628.01,342.4z"/>
				</g>
				<g>
					<path class="st3" d="M652.18,290.53c0.04,0.16-4.87,1.58-10.97,3.15c-6.1,1.58-11.08,2.72-11.13,2.56
						c-0.04-0.16,4.87-1.58,10.97-3.15C647.16,291.51,652.14,290.37,652.18,290.53z"/>
				</g>
				<g>
					<path class="st3" d="M640.66,268.58c0.03,0.17-2.15,0.7-4.86,1.19c-2.72,0.49-4.94,0.75-4.97,0.58
						c-0.03-0.17,2.15-0.7,4.86-1.19C638.4,268.67,640.63,268.41,640.66,268.58z"/>
				</g>
				<g>
					<path class="st0" d="M558.1,275.39c-0.12,0.02-0.3-1.95-1.37-4.91c-1.05-2.94-3.19-6.85-6.75-10.05
						c-3.56-3.2-7.68-4.91-10.71-5.64c-3.05-0.75-5.03-0.72-5.02-0.84c0-0.04,0.49-0.08,1.38-0.05c0.89,0.02,2.18,0.14,3.74,0.47
						c3.11,0.64,7.36,2.32,11.02,5.61c3.66,3.29,5.79,7.34,6.75,10.36c0.49,1.52,0.75,2.79,0.87,3.67
						C558.12,274.89,558.14,275.39,558.1,275.39z"/>
				</g>
				<g>
					<path class="st0" d="M626.73,259.72c0.17-0.03,1.08,4.78,2.03,10.74c0.95,5.96,1.59,10.81,1.42,10.84
						c-0.17,0.03-1.08-4.78-2.03-10.74C627.2,264.6,626.57,259.75,626.73,259.72z"/>
				</g>
			</g>
			<g>
				<g>
					<g>
						<g>
							<path class="st5" d="M690.93,432.91c0,0,44.27,12.25,46.05,12.88c2.67,0.94,2.22,10.71-1.93,10.56
								c-1.96-0.07-34.01,1.19-38.06,0.94c-4.05-0.25-16.26-5.07-16.26-5.07L690.93,432.91z"/>
						</g>
					</g>
				</g>
				<g>
					<g>
						<g>
							<g>
								<path class="st0" d="M709.38,449.81c0.22,0.03,0.52-2.31,1.95-4.75c1.39-2.46,3.27-3.9,3.13-4.08
									c-0.08-0.17-2.28,1.08-3.77,3.71C709.17,447.3,709.19,449.83,709.38,449.81z"/>
							</g>
						</g>
					</g>
				</g>
				<g>
					<g>
						<g>
							<g>
								<path class="st0" d="M704.76,447.71c0.22,0.04,0.67-2.06,1.84-4.37c1.16-2.33,2.57-3.93,2.41-4.08
									c-0.12-0.15-1.85,1.3-3.07,3.75C704.71,445.45,704.57,447.7,704.76,447.71z"/>
							</g>
						</g>
					</g>
				</g>
				<g>
					<g>
						<g>
							<g>
								<path class="st0" d="M700.43,446.55c0.22-0.01,0.05-2.23,1.04-4.68c0.94-2.47,2.57-3.98,2.41-4.14
									c-0.09-0.17-2.07,1.2-3.1,3.87C699.72,444.27,700.25,446.62,700.43,446.55z"/>
							</g>
						</g>
					</g>
				</g>
				<g>
					<g>
						<g>
							<g>
								<path class="st0" d="M701.22,440.84c0.08,0.02,0.47-1.22,0.48-3.29c0-1.03-0.12-2.27-0.45-3.61
									c-0.16-0.67-0.38-1.36-0.66-2.06c-0.14-0.35-0.31-0.76-0.71-1.08c-0.41-0.37-1.16-0.29-1.52,0.08
									c-0.41,0.35-0.53,0.85-0.59,1.25c-0.04,0.41-0.07,0.79-0.06,1.17c0.01,0.76,0.11,1.49,0.27,2.17
									c0.33,1.35,0.85,2.49,1.36,3.38c1.03,1.8,1.93,2.72,1.99,2.67c0.1-0.07-0.64-1.1-1.52-2.91c-0.44-0.9-0.89-2.01-1.16-3.29
									c-0.14-0.64-0.21-1.32-0.21-2.02c0.02-0.68,0.01-1.53,0.41-1.86c0.21-0.17,0.4-0.19,0.59-0.05c0.2,0.15,0.36,0.45,0.49,0.77
									c0.27,0.66,0.5,1.32,0.67,1.95c0.35,1.27,0.52,2.46,0.59,3.46C701.3,439.57,701.1,440.82,701.22,440.84z"/>
							</g>
						</g>
					</g>
				</g>
				<g>
					<g>
						<g>
							<g>
								<path class="st0" d="M701.16,440.39c0.02-0.08-1.05-0.45-2.86-0.46c-0.9,0-1.98,0.09-3.14,0.39
									c-0.57,0.15-1.19,0.3-1.81,0.67c-0.61,0.31-1.24,1.15-1,2.02c0.19,0.82,0.9,1.4,1.59,1.58c0.71,0.2,1.39,0.13,1.99-0.01
									c1.21-0.28,2.16-0.88,2.88-1.41c1.42-1.11,2.11-1.97,2.06-2.03c-0.08-0.09-0.92,0.63-2.36,1.6
									c-0.73,0.46-1.63,0.97-2.72,1.18c-0.54,0.1-1.12,0.14-1.64-0.02c-0.52-0.14-0.95-0.54-1.08-1.05
									c-0.13-0.49,0.17-0.95,0.66-1.24c0.47-0.29,1.06-0.46,1.61-0.63c1.1-0.31,2.12-0.46,2.98-0.52
									C700.06,440.33,701.14,440.5,701.16,440.39z"/>
							</g>
						</g>
					</g>
				</g>
				<g>
					<g>
						<g>
							<g>
								<path class="st0" d="M716.18,450.28c0.22-0.02,0-1.92,0.87-3.99c0.83-2.09,2.31-3.29,2.17-3.47
									c-0.07-0.18-1.92,0.87-2.85,3.19C715.41,448.31,716,450.36,716.18,450.28z"/>
							</g>
						</g>
					</g>
				</g>
				<g>
					<g>
						<g>
							<g>
								<path class="st0" d="M685.29,452.33c-0.02,0.05,0.59,0.33,1.71,0.81c1.14,0.43,2.8,1.03,4.93,1.53
									c4.23,1.07,10.27,1.67,16.9,1.6c6.64-0.07,12.61-0.38,16.95-0.55c2.05-0.11,3.77-0.2,5.13-0.27
									c1.21-0.08,1.88-0.15,1.88-0.2c0-0.05-0.67-0.08-1.89-0.09c-1.36,0.01-3.08,0.02-5.14,0.04c-4.48,0.09-10.4,0.2-16.94,0.33
									c-6.6,0.07-12.57-0.45-16.78-1.37C687.81,453.28,685.34,452.19,685.29,452.33z"/>
							</g>
						</g>
					</g>
				</g>
				<g>
					<g>
						<g>
							<g>
								<path class="st0" d="M683.98,453.33c0.06,0.1,1.27-0.61,3.32-1.5c2.02-0.87,5.05-1.91,8.38-1.39
									c3.34,0.51,5.7,2.75,7.24,4.31c1.55,1.61,2.46,2.68,2.55,2.61c0.07-0.06-0.69-1.23-2.17-2.96c-0.75-0.86-1.7-1.85-2.94-2.74
									c-1.23-0.9-2.81-1.67-4.57-1.94c-3.57-0.55-6.71,0.65-8.72,1.65C685.04,452.4,683.93,453.26,683.98,453.33z"/>
							</g>
						</g>
					</g>
				</g>
			</g>
			<g>
				<g>
					<g>
						<g>
							<path class="st5" d="M638.53,422.64c0,0-41.9,27.43-43.4,28.57c-2.26,1.7,0.33,9.82,4.24,8.42
								c1.85-0.66,37.01-10.44,40.79-11.92c3.78-1.47,13.96-9.77,13.96-9.77L638.53,422.64z"/>
						</g>
					</g>
				</g>
				<g>
					<g>
						<g>
							<g>
								<path class="st0" d="M626.09,444.33c0.18-0.04-0.56-2.46-2.8-4.48c-2.22-2.05-4.7-2.57-4.72-2.38
									c-0.08,0.21,2.14,1.01,4.22,2.93C624.89,442.29,625.89,444.43,626.09,444.33z"/>
							</g>
						</g>
					</g>
				</g>
				<g>
					<g>
						<g>
							<g>
								<path class="st0" d="M629.85,440.94c0.18-0.07-0.63-2.17-2.55-4.12c-1.91-1.96-3.99-2.82-4.07-2.64
									c-0.11,0.19,1.73,1.29,3.54,3.16C628.6,439.18,629.66,441.04,629.85,440.94z"/>
							</g>
						</g>
					</g>
				</g>
				<g>
					<g>
						<g>
							<g>
								<path class="st0" d="M633.63,438.52c0.19,0.01-0.02-2.4-1.83-4.61c-1.79-2.23-4.1-2.93-4.13-2.75
									c-0.1,0.2,1.91,1.15,3.55,3.21C632.9,436.41,633.41,438.57,633.63,438.52z"/>
							</g>
						</g>
					</g>
				</g>
				<g>
					<g>
						<g>
							<g>
								<path class="st0" d="M631.14,433.31c0.11-0.05-0.46-1.19-0.95-3.14c-0.24-0.97-0.44-2.15-0.49-3.47
									c-0.03-0.66-0.01-1.35,0.05-2.06c0.02-0.34,0.09-0.68,0.23-0.88c0.13-0.19,0.32-0.23,0.57-0.13c0.48,0.19,0.73,1,0.95,1.65
									c0.21,0.67,0.35,1.34,0.41,1.99c0.13,1.3,0.03,2.5-0.11,3.49c-0.29,1.99-0.69,3.2-0.57,3.23c0.08,0.03,0.65-1.12,1.09-3.14
									c0.21-1.01,0.37-2.25,0.27-3.64c-0.05-0.69-0.18-1.42-0.4-2.15c-0.11-0.37-0.24-0.72-0.41-1.1
									c-0.17-0.36-0.45-0.8-0.94-1.01c-0.45-0.24-1.19-0.09-1.47,0.39c-0.28,0.44-0.32,0.87-0.35,1.25
									c-0.05,0.75-0.05,1.47,0,2.16c0.1,1.37,0.36,2.59,0.67,3.58C630.32,432.29,631.07,433.35,631.14,433.31z"/>
							</g>
						</g>
					</g>
				</g>
				<g>
					<g>
						<g>
							<g>
								<path class="st0" d="M631.06,432.86c0.05,0.11,1.04-0.39,2.72-0.8c0.84-0.2,1.86-0.38,3-0.41c0.57-0.01,1.18-0.03,1.72,0.11
									c0.55,0.13,0.97,0.47,1,0.98c0.04,0.52-0.25,1.04-0.71,1.33c-0.45,0.31-1.01,0.45-1.56,0.52c-1.09,0.13-2.11-0.07-2.94-0.3
									c-1.67-0.48-2.69-0.92-2.73-0.81c-0.03,0.07,0.89,0.68,2.58,1.31c0.85,0.29,1.93,0.58,3.17,0.47
									c0.61-0.06,1.28-0.2,1.89-0.6c0.61-0.38,1.11-1.15,1.04-1.99c-0.04-0.91-0.9-1.51-1.57-1.62c-0.7-0.16-1.33-0.11-1.93-0.09
									c-1.2,0.07-2.25,0.31-3.11,0.59C631.92,432.12,631.01,432.79,631.06,432.86z"/>
							</g>
						</g>
					</g>
				</g>
				<g>
					<g>
						<g>
							<g>
								<path class="st0" d="M604.71,458.09c0.05,0.07,0.7-0.42,1.03-1.62c0.35-1.17,0.13-2.97-0.78-4.55
									c-0.44-0.8-0.94-1.48-1.4-2.09c-0.46-0.61-0.93-1.16-1.42-1.53c-0.48-0.38-0.99-0.55-1.34-0.56
									c-0.35-0.01-0.53,0.07-0.52,0.11c0,0.12,0.75,0.06,1.52,0.85c0.39,0.37,0.78,0.9,1.21,1.53c0.43,0.62,0.9,1.3,1.31,2.05
									c0.85,1.48,1.1,3.01,0.92,4.09C605.07,457.44,604.61,458.02,604.71,458.09z"/>
							</g>
						</g>
					</g>
				</g>
				<g>
					<g>
						<g>
							<g>
								<path class="st0" d="M619.75,446.85c0.19,0.02,0.14-2.11-1.48-4.01c-1.59-1.93-3.67-2.36-3.69-2.17
									c-0.08,0.21,1.69,0.9,3.12,2.64C619.17,445.02,619.54,446.89,619.75,446.85z"/>
							</g>
						</g>
					</g>
				</g>
				<g>
					<g>
						<g>
							<g>
								<path class="st0" d="M649.81,439.42c-0.04-0.04-0.68,0.43-1.84,1.26c-1.18,0.82-2.91,1.96-5.17,3.17
									c-2.25,1.21-5.03,2.47-8.21,3.65c-3.17,1.18-6.73,2.3-10.49,3.39c-7.54,2.17-14.36,4.15-19.28,5.64
									c-2.36,0.73-4.32,1.33-5.82,1.79c-1.37,0.44-2.12,0.7-2.11,0.75c0.01,0.05,0.79-0.12,2.19-0.48c1.52-0.4,3.5-0.93,5.89-1.56
									c4.96-1.35,11.8-3.26,19.35-5.43c3.77-1.09,7.34-2.23,10.53-3.46c3.18-1.23,5.97-2.55,8.22-3.83
									c2.25-1.28,3.95-2.5,5.08-3.39C649.26,440,649.84,439.45,649.81,439.42z"/>
							</g>
						</g>
					</g>
				</g>
				<g>
					<g>
						<g>
							<g>
								<path class="st0" d="M651.36,439.98c0.02-0.08-1.3-0.57-3.55-0.94c-2.21-0.35-5.57-0.53-8.8,1.08
									c-1.6,0.79-2.87,2.01-3.77,3.24c-0.91,1.23-1.51,2.46-1.96,3.51c-0.88,2.1-1.25,3.45-1.16,3.48
									c0.11,0.04,0.65-1.25,1.64-3.26c0.99-1.95,2.57-4.8,5.59-6.3c3.01-1.5,6.22-1.43,8.41-1.22
									C649.97,439.79,651.34,440.1,651.36,439.98z"/>
							</g>
						</g>
					</g>
				</g>
			</g>
			<g>
				<g>
					<g>
						<g>
							<path class="st0" d="M725.63,354.03c0,0,12.57,4.49,12.62,18.58c0.1,27-54.54,56.75-54.54,56.75l-72.72-48.18l-4.56-1.84
								C606.43,379.34,704.59,342.46,725.63,354.03z"/>
						</g>
					</g>
				</g>
				<g>
					<g>
						<g>
							<g>
								<path class="st3" d="M647.82,405.52c0.03,0.04,0.7-0.42,1.89-1.28c1.19-0.86,2.89-2.15,4.97-3.76
									c4.16-3.22,9.83-7.78,15.92-13.01c6.09-5.23,11.46-10.14,15.27-13.77c1.91-1.81,3.43-3.3,4.46-4.35
									c1.04-1.05,1.59-1.64,1.56-1.68c-0.04-0.04-0.66,0.49-1.75,1.47c-1.19,1.07-2.74,2.48-4.62,4.17
									c-3.9,3.53-9.31,8.37-15.4,13.6c-6.09,5.22-11.69,9.84-15.77,13.16c-1.96,1.6-3.58,2.93-4.82,3.94
									C648.4,404.94,647.79,405.48,647.82,405.52z"/>
							</g>
						</g>
					</g>
				</g>
				<g>
					<g>
						<g>
							<g>
								<path class="st3" d="M705.1,364.12c0.03-0.18-3.22-0.5-7.01,0.64c-3.8,1.11-6.35,3.13-6.23,3.27
									c0.12,0.19,2.77-1.5,6.44-2.56C701.96,364.37,705.1,364.35,705.1,364.12z"/>
							</g>
						</g>
					</g>
				</g>
				<g>
					<g>
						<g>
							<g>
								<path class="st3" d="M698.84,359.87c-0.07-0.18-2.4,0.85-4.31,3.24c-1.94,2.38-2.45,4.87-2.26,4.9
									c0.21,0.07,1.01-2.19,2.84-4.43C696.9,361.31,698.95,360.06,698.84,359.87z"/>
							</g>
						</g>
					</g>
				</g>
				<g>
					<g>
						<g>
							<g>
								<path class="st0" d="M729.63,445.35c0.04-0.08-0.87-0.26-1.87,0.57c-0.99,0.79-1.83,2.37-2.1,4.22
									c-0.27,1.86,0.14,3.57,0.66,4.65c0.51,1.1,1.08,1.62,1.14,1.57c0.1-0.07-0.3-0.68-0.66-1.77c-0.37-1.07-0.67-2.65-0.42-4.35
									c0.25-1.7,0.94-3.16,1.72-3.94C728.88,445.5,729.64,445.46,729.63,445.35z"/>
							</g>
						</g>
					</g>
				</g>
			</g>
			<g>
				<g>
					<g>
						<g>
							<path class="st4" d="M720.43,315.69l-20.69,55.73c-1.18,3.18-4.24,5.28-7.63,5.24l-113.88-1.5v-8.65l42.26,1.54l17.94-55.63
								c0.61-1.88,2.36-3.15,4.33-3.15l73.46,0.21C719.42,309.49,721.6,312.71,720.43,315.69z"/>
							<g>
								<path class="st0" d="M720.43,315.69c0,0,0.01-0.06,0.05-0.18c0.03-0.12,0.1-0.28,0.14-0.52c0.11-0.46,0.18-1.19-0.05-2.09
									c-0.24-0.88-0.83-1.97-2-2.69c-0.58-0.36-1.29-0.61-2.07-0.65c-0.78-0.04-1.63-0.01-2.53-0.02
									c-7.18-0.01-17.6-0.02-30.65-0.04c-6.53-0.01-13.71-0.03-21.47-0.04c-3.88-0.01-7.91-0.02-12.06-0.03
									c-2.08,0-4.19-0.01-6.34-0.01c-1.08-0.05-2.13,0.08-3.03,0.67c-0.89,0.56-1.58,1.44-1.88,2.48
									c-5.42,16.82-11.44,35.53-17.89,55.53l-0.04,0.13l-0.14,0c-13.48-0.49-27.67-1.01-42.26-1.54l0.19-0.18
									c0,0.49,0,1.02,0,1.54c0,2.44,0,4.86,0,7.11l-0.18-0.18c25.48,0.34,49.66,0.66,71.61,0.96c10.97,0.15,21.39,0.29,31.13,0.43
									c2.43,0.03,4.83,0.07,7.17,0.1c1.17,0.02,2.34,0.03,3.49,0.05c1.15,0.05,2.27-0.09,3.31-0.48c2.08-0.77,3.77-2.42,4.56-4.39
									c0.76-2.03,1.5-4.01,2.22-5.94c5.77-15.48,10.43-27.98,13.66-36.63c1.61-4.3,2.87-7.64,3.72-9.93
									C719.97,316.87,720.43,315.69,720.43,315.69s-0.42,1.2-1.25,3.47c-0.84,2.29-2.07,5.64-3.66,9.95
									c-3.2,8.66-7.82,21.17-13.55,36.67c-0.72,1.94-1.46,3.92-2.21,5.95c-0.81,2.05-2.56,3.76-4.71,4.55
									c-1.07,0.41-2.26,0.55-3.41,0.51c-1.15-0.01-2.31-0.03-3.49-0.04c-2.35-0.03-4.74-0.06-7.17-0.09
									c-9.74-0.12-20.16-0.25-31.13-0.39c-21.95-0.28-46.14-0.6-71.61-0.93l-0.18,0v-0.18c0-2.25,0-4.67,0-7.11
									c0-0.53,0-1.06,0-1.54v-0.19l0.19,0.01c14.59,0.53,28.78,1.05,42.26,1.55l-0.18,0.12c6.46-19.99,12.5-38.7,17.93-55.52
									c0.32-1.09,1.06-2.05,2.02-2.64c0.95-0.62,2.14-0.77,3.19-0.71c2.15,0.01,4.26,0.02,6.34,0.02
									c4.16,0.02,8.18,0.03,12.06,0.04c7.76,0.03,14.94,0.06,21.47,0.08c13.04,0.06,23.47,0.11,30.65,0.14
									c0.9,0.01,1.74-0.01,2.54,0.03c0.8,0.05,1.53,0.31,2.11,0.68c1.19,0.74,1.78,1.86,2.01,2.76c0.22,0.92,0.13,1.65,0.02,2.12
									C720.53,315.47,720.43,315.69,720.43,315.69z"/>
							</g>
						</g>
					</g>
				</g>
				<g>
					<g>
						<path class="st8" d="M669.93,336.76c1.48-1,4.21-0.6,5.54,0.59c1.33,1.19,1.76,3.25,1.08,4.9c-0.68,1.65-2.38,2.81-4.16,2.91
							c-1.89,0.1-3.87-1.08-4.4-2.9C667.47,340.44,668.05,337.72,669.93,336.76"/>
					</g>
				</g>
			</g>
			<g>
				<g>
					<g>
						<g>
							<path class="st0" d="M695.97,432.4c0,0-102.63-65.74-107.16-68.32c-3.85-2.19-14.17-8.54-24.33-5.74
								c-10.17,2.8-19.28,11.92-23.84,25.24c-2.6,7.61-3.83,20.6-4.41,30.34c-0.69,11.64,2.92,23.25,10.53,32.09
								c3.47,4.02,7.74,7.52,12.81,9.1c1.07,0.33,2.18,0.62,3.32,0.87c19.43,4.21,39.39-4.51,50.3-21.12l2.4-3.65
								c0,0,67.21,24.69,68.26,24.34L695.97,432.4z"/>
						</g>
					</g>
				</g>
				<g>
					<path class="st3" d="M594.1,367.72c-0.01,0.01-0.09-0.04-0.26-0.15c-0.19-0.13-0.43-0.29-0.72-0.49
						c-0.63-0.43-1.55-1.08-2.77-1.86c-2.44-1.55-6.04-3.77-10.9-5.54c-2.43-0.86-5.19-1.56-8.21-1.73
						c-3.01-0.13-6.27,0.32-9.44,1.54c-3.18,1.19-6.27,3.09-9.07,5.5c-1.4,1.2-2.76,2.53-4.03,3.96c-1.25,1.43-2.36,3.04-3.33,4.74
						c-1.95,3.41-3.39,7.01-4.43,10.57c-0.97,3.58-1.74,7.12-2.48,10.46c-1.46,6.7-2.25,12.83-2.36,18.01
						c-0.08,5.18,0.44,9.35,0.93,12.21c0.22,1.43,0.48,2.53,0.63,3.28c0.07,0.35,0.12,0.63,0.17,0.85c0.03,0.19,0.05,0.29,0.04,0.3
						c-0.01,0-0.04-0.09-0.1-0.28c-0.06-0.22-0.14-0.5-0.23-0.84c-0.19-0.74-0.49-1.83-0.75-3.26c-0.57-2.85-1.16-7.04-1.13-12.25
						c0.05-5.21,0.8-11.39,2.24-18.12c0.73-3.36,1.48-6.87,2.45-10.51c1.04-3.61,2.49-7.25,4.47-10.71c0.99-1.73,2.12-3.37,3.4-4.84
						c1.3-1.46,2.67-2.79,4.1-4.01c2.86-2.45,6.01-4.37,9.26-5.58c3.25-1.23,6.59-1.67,9.67-1.52c3.08,0.19,5.89,0.93,8.33,1.83
						c4.89,1.84,8.48,4.13,10.88,5.75c1.2,0.82,2.11,1.49,2.71,1.96c0.28,0.22,0.5,0.4,0.68,0.54
						C594.04,367.65,594.11,367.72,594.1,367.72z"/>
				</g>
				<g>
					<g>
						<g>
							<g>
								<path class="st3" d="M568.85,413.85c0,0,0.19,0.1,0.56,0.25c0.41,0.16,0.96,0.38,1.68,0.67c1.52,0.58,3.7,1.43,6.51,2.51
									c5.71,2.15,13.96,5.26,24.21,9.12c10.28,3.84,22.6,8.4,36.42,13.43c13.82,5.02,29.14,10.54,45.49,16.08l0.3,0.1l0.15-0.28
									c2.57-4.9,5.28-10.08,8.03-15.33c1.4-2.68,2.79-5.34,4.09-7.82l0.16-0.3l-0.28-0.18c-30.85-19.59-58.45-37.11-78.37-49.75
									c-9.95-6.27-17.97-11.34-23.54-14.85c-2.76-1.72-4.91-3.06-6.39-3.99c-0.71-0.44-1.27-0.78-1.67-1.02
									c-0.38-0.23-0.58-0.33-0.58-0.33s0.18,0.14,0.54,0.39c0.39,0.26,0.93,0.62,1.63,1.08c1.47,0.95,3.6,2.33,6.32,4.1
									c5.54,3.56,13.52,8.69,23.42,15.04c19.89,12.69,47.44,30.28,78.24,49.94l-0.13-0.48c-1.3,2.48-2.69,5.14-4.09,7.82
									c-2.75,5.25-5.46,10.43-8.02,15.33l0.44-0.18c-16.35-5.52-31.67-11.01-45.5-15.99c-13.81-5.03-26.15-9.52-36.47-13.27
									c-10.28-3.77-18.55-6.81-24.28-8.91c-2.83-1.03-5.03-1.83-6.56-2.39c-0.73-0.26-1.29-0.46-1.71-0.6
									C569.06,413.9,568.85,413.85,568.85,413.85z"/>
							</g>
						</g>
					</g>
				</g>
			</g>
			<g>
				<path class="st5" d="M574.17,195.76c-1.79-3.52-3.6-7.08-4.56-10.91c-0.96-3.83-1.03-8.01,0.61-11.61
					c0.96-2.1,2.46-3.95,3.21-6.13c1.03-3.01,0.61-6.55,2.47-9.13c2.91-4.03,9.14-3.09,13.63-5.2c3.5-1.64,5.95-5.19,9.64-6.37
					c3.22-1.03,6.73-0.04,9.84,1.29c3.11,1.33,6.14,3.02,9.49,3.46c2.39,0.31,4.81-0.03,7.22,0.02c2.41,0.05,4.97,0.58,6.66,2.3
					c1.7,1.71,2.05,4.87,0.22,6.43c4.22-0.72,8.19,3.49,8.13,7.77c-0.06,4.28-3.28,8.04-7.16,9.82c-3.89,1.78-8.33,1.89-12.59,1.56
					c-12.07-0.94-24.19-5.53-32.41-14.42"/>
				<g>
					<g>
						<g>
							<g>
								<g>
									<g>
										<g>
											<g>
												<g>
													<g>
														<g>
															<g>
																<g>
																	<g>
																		<g>
																			<g>
																				<path class="st9" d="M576.77,180.66l-8.22,59.75c-1.4,10.16,5.99,19.42,16.21,20.32l0,0
																					c9.54,0.83,18.05-5.97,19.34-15.46c0.61-4.5,1.14-8.25,1.23-8.71c0,0,15.41,0.66,18.58-14.24
																					c1.53-7.2,3.48-22.29,5.08-35.97c1.72-14.68-8.14-28.22-22.64-31.12l-1.44-0.29
																					C589.18,152.76,578.53,164.88,576.77,180.66z"/>
																			</g>
																		</g>
																	</g>
																</g>
															</g>
														</g>
													</g>
												</g>
											</g>
											<g>
												<g>
													<g>
														<g>
															<g>
																<g>
																	<g>
																		<g>
																			<g>
																				<path class="st10" d="M605.4,236.36c0,0-9.6-1.12-18.37-9.43c0,0,2.46,11.67,17.63,13.31L605.4,236.36z"/>
																			</g>
																		</g>
																	</g>
																</g>
															</g>
														</g>
													</g>
												</g>
											</g>
										</g>
									</g>
								</g>
								<g>
									<g>
										<g>
											<g>
												<g>
													<g>
														<g>
															<g>
																<g>
																	<g>
																		<g>
																			<g>
																				<g>
																					<g>
																						<g>
																							<path class="st0" d="M622.29,199.07c-0.18,1.13-1.3,1.91-2.49,1.74c-1.19-0.17-2-1.23-1.81-2.36
																								c0.19-1.13,1.3-1.91,2.49-1.74C621.66,196.87,622.47,197.93,622.29,199.07z"/>
																						</g>
																					</g>
																				</g>
																			</g>
																		</g>
																	</g>
																</g>
															</g>
														</g>
														<g>
															<g>
																<g>
																	<g>
																		<g>
																			<g>
																				<g>
																					<g>
																						<g>
																							<g>
																								<path class="st0" d="M624.31,193.05c-0.32,0.23-1.7-1.29-3.99-1.75c-2.29-0.49-4.21,0.36-4.4,0.03
																									c-0.1-0.15,0.27-0.6,1.11-0.98c0.83-0.39,2.16-0.66,3.59-0.37c1.43,0.29,2.53,1.06,3.11,1.74
																									C624.33,192.41,624.47,192.96,624.31,193.05z"/>
																							</g>
																						</g>
																					</g>
																				</g>
																			</g>
																		</g>
																	</g>
																</g>
															</g>
														</g>
													</g>
													<g>
														<g>
															<g>
																<g>
																	<g>
																		<g>
																			<g>
																				<g>
																					<g>
																						<g>
																							<path class="st0" d="M600.87,195.37c-0.19,1.13-1.3,1.91-2.49,1.74c-1.19-0.17-2-1.23-1.81-2.36
																								c0.19-1.13,1.3-1.91,2.49-1.74C600.25,193.18,601.06,194.23,600.87,195.37z"/>
																						</g>
																					</g>
																				</g>
																			</g>
																		</g>
																	</g>
																</g>
															</g>
														</g>
														<g>
															<g>
																<g>
																	<g>
																		<g>
																			<g>
																				<g>
																					<g>
																						<g>
																							<g>
																								<path class="st0" d="M601.66,188.97c-0.32,0.23-1.7-1.29-4-1.75c-2.29-0.48-4.21,0.36-4.4,0.03
																									c-0.1-0.15,0.27-0.6,1.11-0.98c0.83-0.39,2.16-0.66,3.59-0.37c1.43,0.29,2.53,1.06,3.11,1.74
																									C601.67,188.32,601.81,188.88,601.66,188.97z"/>
																							</g>
																						</g>
																					</g>
																				</g>
																			</g>
																		</g>
																	</g>
																</g>
															</g>
														</g>
													</g>
													<g>
														<g>
															<g>
																<g>
																	<g>
																		<g>
																			<g>
																				<g>
																					<g>
																						<g>
																							<path class="st0" d="M606.59,207.67c0.02-0.13,1.49-0.09,3.86,0.07c0.6,0.06,1.18,0.05,1.36-0.33
																								c0.22-0.4,0.1-1.08-0.04-1.82c-0.27-1.53-0.55-3.13-0.84-4.81c-1.14-6.84-1.84-12.41-1.56-12.46
																								c0.28-0.04,1.42,5.46,2.56,12.3c0.27,1.68,0.52,3.29,0.76,4.82c0.09,0.71,0.32,1.54-0.16,2.36
																								c-0.25,0.41-0.74,0.64-1.14,0.66c-0.4,0.04-0.73-0.02-1.02-0.06C608.02,208.08,606.57,207.8,606.59,207.67z"
																								/>
																						</g>
																					</g>
																				</g>
																			</g>
																		</g>
																	</g>
																</g>
															</g>
														</g>
													</g>
													<g>
														<g>
															<g>
																<g>
																	<g>
																		<g>
																			<g>
																				<g>
																					<g>
																						<g>
																							<path class="st0" d="M599.52,207.9c0.38,0.05-0.12,2.55,1.66,4.74c1.77,2.2,4.49,2.45,4.44,2.8
																								c0,0.16-0.69,0.37-1.82,0.17c-1.11-0.18-2.64-0.86-3.73-2.2c-1.08-1.34-1.35-2.9-1.24-3.94
																								C598.95,208.42,599.35,207.86,599.52,207.9z"/>
																						</g>
																					</g>
																				</g>
																			</g>
																		</g>
																	</g>
																</g>
															</g>
														</g>
													</g>
												</g>
											</g>
										</g>
										<g>
											<g>
												<g>
													<g>
														<g>
															<g>
																<g>
																	<g>
																		<g>
																			<path class="st5" d="M604.05,180.09c-0.35,0.58-2.58-0.17-5.34-0.39c-2.75-0.27-5.08,0.09-5.33-0.55
																				c-0.11-0.3,0.39-0.81,1.39-1.24c0.99-0.43,2.49-0.73,4.15-0.58c1.65,0.15,3.08,0.7,3.98,1.29
																				C603.81,179.23,604.21,179.82,604.05,180.09z"/>
																		</g>
																	</g>
																</g>
															</g>
														</g>
													</g>
												</g>
											</g>
										</g>
										<g>
											<g>
												<g>
													<g>
														<g>
															<g>
																<g>
																	<g>
																		<g>
																			<path class="st5" d="M624.8,186.24c-0.51,0.44-1.98-0.42-3.88-0.82c-1.88-0.47-3.58-0.35-3.84-0.97
																				c-0.11-0.3,0.25-0.77,1.05-1.12c0.79-0.35,2.03-0.52,3.33-0.22c1.3,0.3,2.34,1,2.89,1.67
																				C624.91,185.44,625.03,186.02,624.8,186.24z"/>
																		</g>
																	</g>
																</g>
															</g>
														</g>
													</g>
												</g>
											</g>
										</g>
									</g>
								</g>
							</g>
						</g>
					</g>
					<g>
						<g>
							<g>
								<g>
									<g>
										<g>
											<g>
												<g>
													<g>
														<g>
															<path class="st9" d="M575.78,191.97c-0.23-0.16-9.66-5.09-11.37,5.19c-1.71,10.28,8.96,9.88,9.03,9.59
																C573.5,206.46,575.78,191.97,575.78,191.97z"/>
														</g>
													</g>
												</g>
											</g>
										</g>
									</g>
								</g>
							</g>
						</g>
						<g>
							<g>
								<g>
									<g>
										<g>
											<g>
												<g>
													<g>
														<g>
															<g>
																<path class="st10" d="M570.94,202.33c-0.04-0.04-0.2,0.1-0.53,0.18c-0.32,0.09-0.84,0.09-1.34-0.2
																	c-1.02-0.58-1.65-2.46-1.39-4.32c0.13-0.94,0.47-1.8,0.93-2.48c0.44-0.7,1.01-1.14,1.58-1.15
																	c0.56-0.04,0.9,0.36,0.97,0.67c0.09,0.31-0.01,0.5,0.04,0.53c0.02,0.03,0.25-0.14,0.24-0.57
																	c-0.01-0.21-0.09-0.47-0.3-0.71c-0.21-0.24-0.56-0.4-0.95-0.43c-0.8-0.08-1.64,0.53-2.14,1.28
																	c-0.54,0.75-0.95,1.71-1.1,2.76c-0.28,2.08,0.46,4.2,1.87,4.87c0.69,0.31,1.33,0.19,1.68,0
																	C570.88,202.58,570.97,202.36,570.94,202.33z"/>
															</g>
														</g>
													</g>
												</g>
											</g>
										</g>
									</g>
								</g>
							</g>
						</g>
					</g>
					<g>
						<g>
							<path class="st5" d="M631.95,172.49c-1.76,3.8-10.83,5.27-17.48,3.26c-6.13-1.85-8.35-5.74-12.25-9.13
								c-2.47-2.15-2.47-2.15-6.49-2.56c-3.25-0.34-5.87,2.9-8.33,5.06c1.37,8.17-2.26,16.26-5.8,23.75
								c-0.39,0.83-0.84,1.71-1.66,2.12c-1.39,0.69-3.06-0.4-3.89-1.71c-1.33-2.1-1.49-4.73-1.44-7.21
								c0.11-5.67,1.11-11.37,3.41-16.55c2.3-5.18,5.96-9.83,10.75-12.87c5.98-3.8,13.52-4.88,20.44-3.39
								c6.93,1.5,13.21,5.46,17.92,10.76C629.3,166.46,631.2,169.28,631.95,172.49"/>
						</g>
					</g>
				</g>
				<g>
					<g>
						<g>
							<path class="st0" d="M611.03,197.34c0.09,0,0.06-0.89,0.47-2.39c0.41-1.47,1.42-3.63,3.64-5.28c2.15-1.66,5.68-2.58,9.1-1.31
								c1.68,0.61,3.29,1.76,4.42,3.34c1.17,1.56,1.83,3.57,1.85,5.64c-0.02,2.07-0.68,4.07-1.85,5.64
								c-1.14,1.59-2.74,2.73-4.43,3.34c-3.42,1.28-6.95,0.35-9.1-1.31c-2.22-1.65-3.23-3.81-3.64-5.28
								C611.09,198.22,611.12,197.33,611.03,197.34c-0.03,0-0.05,0.22-0.05,0.64c-0.01,0.42,0.03,1.04,0.21,1.83
								c0.32,1.55,1.29,3.85,3.6,5.67c2.23,1.82,6.01,2.9,9.72,1.56c1.83-0.64,3.57-1.87,4.82-3.58c1.28-1.69,2.01-3.87,2.02-6.12
								c-0.02-2.25-0.74-4.43-2.02-6.12c-1.25-1.71-2.99-2.94-4.82-3.58c-3.71-1.34-7.48-0.26-9.71,1.56
								c-2.31,1.82-3.27,4.13-3.6,5.67c-0.17,0.78-0.22,1.41-0.21,1.83C610.99,197.12,611.01,197.34,611.03,197.34z"/>
						</g>
					</g>
					<g>
						<g>
							<path class="st0" d="M586.65,193.08c0.09,0,0.06-0.89,0.47-2.39c0.41-1.47,1.42-3.63,3.64-5.28c2.15-1.66,5.68-2.58,9.1-1.31
								c1.68,0.61,3.29,1.76,4.42,3.34c1.17,1.56,1.83,3.57,1.85,5.64c-0.02,2.07-0.68,4.07-1.85,5.64
								c-1.14,1.59-2.74,2.73-4.42,3.34c-3.42,1.28-6.95,0.35-9.1-1.31c-2.22-1.65-3.23-3.81-3.64-5.28
								C586.71,193.96,586.74,193.07,586.65,193.08c-0.03,0-0.05,0.22-0.05,0.64c-0.01,0.42,0.03,1.04,0.21,1.83
								c0.32,1.55,1.29,3.85,3.6,5.67c2.23,1.82,6.01,2.9,9.72,1.56c1.83-0.64,3.57-1.87,4.82-3.58c1.28-1.69,2.01-3.87,2.02-6.12
								c-0.02-2.25-0.74-4.43-2.02-6.12c-1.25-1.71-2.99-2.94-4.82-3.58c-3.71-1.34-7.48-0.26-9.71,1.56
								c-2.31,1.82-3.27,4.13-3.6,5.67c-0.17,0.78-0.22,1.41-0.21,1.83C586.61,192.86,586.62,193.08,586.65,193.08z"/>
						</g>
					</g>
					<g>
						<g>
							<path class="st0" d="M606.74,193.42c0.1,0.21,1.41-0.4,2.93,0.06c1.52,0.45,2.28,1.68,2.48,1.57c0.1-0.04,0.05-0.44-0.3-0.95
								c-0.33-0.51-1.01-1.13-1.94-1.41c-0.93-0.28-1.84-0.14-2.4,0.1C606.94,193.03,606.68,193.33,606.74,193.42z"/>
						</g>
					</g>
					<g>
						<g>
							<path class="st0" d="M572.84,190.44c0,0.23,3.28,0.37,7.32,0.31c4.04-0.06,7.31-0.29,7.31-0.52c0-0.23-3.28-0.37-7.32-0.31
								C576.11,189.98,572.83,190.21,572.84,190.44z"/>
						</g>
					</g>
				</g>
				<g>
					<path class="st8" d="M636.75,162.68c0,0,0.03,0.36-0.16,0.98c-0.18,0.61-0.66,1.46-1.54,2.21c-0.87,0.76-2.18,1.35-3.7,1.51
						c-1.52,0.19-3.19,0-4.9-0.26c-3.44-0.51-6.52-1.19-8.72-1.76c-1.1-0.29-1.99-0.54-2.6-0.73c-0.25-0.08-0.48-0.15-0.7-0.22
						c-0.16-0.05-0.24-0.09-0.24-0.09c0-0.01,0.09,0.01,0.25,0.05c0.22,0.06,0.46,0.12,0.71,0.18c0.76,0.19,1.62,0.4,2.61,0.65
						c2.21,0.53,5.28,1.18,8.72,1.69c1.71,0.26,3.36,0.44,4.84,0.27c1.48-0.15,2.75-0.7,3.61-1.42c0.87-0.71,1.36-1.52,1.56-2.11
						C636.71,163.03,636.72,162.67,636.75,162.68z"/>
				</g>
				<g>
					<path class="st8" d="M639.03,165.01c0,0-0.1,1.15-0.88,2.81c-0.76,1.65-2.31,3.8-4.73,5.25c-2.43,1.45-5.05,1.8-6.86,1.68
						c-1.83-0.1-2.89-0.56-2.89-0.56c0.01-0.02,0.28,0.05,0.78,0.15c0.5,0.1,1.22,0.21,2.12,0.24c1.79,0.07,4.36-0.3,6.73-1.72
						c2.37-1.42,3.91-3.5,4.7-5.11c0.4-0.81,0.65-1.5,0.8-1.98C638.94,165.28,639.01,165,639.03,165.01z"/>
				</g>
			</g>
		</g>
	</g>
</g>
</svg>
