<svg id="Ñëîé_1" data-name="Ñëîé 1" xmlns="http://www.w3.org/2000/svg" viewBox="0 0 594.06 401.3"><defs><style>.cls-1{fill:#fff;}</style></defs><title>logo</title><path class="cls-1" d="M576.36,425.65H23.64A20.68,20.68,0,0,1,3,405V45A20.68,20.68,0,0,1,23.64,24.35H576.36A20.68,20.68,0,0,1,597,45V405A20.68,20.68,0,0,1,576.36,425.65Zm-532-41.35H555.68V65.7H44.32Z" transform="translate(-2.97 -24.35)"/><path class="cls-1" d="M199.76,327.67a20.61,20.61,0,0,1-13.71-5.2l-92.3-81.83a20.67,20.67,0,0,1,0-30.94l92.3-81.83a20.68,20.68,0,0,1,27.44,30.95l-74.86,66.35,74.86,66.36a20.67,20.67,0,0,1-13.73,36.14Z" transform="translate(-2.97 -24.35)"/><path class="cls-1" d="M400.24,327.67a20.67,20.67,0,0,1-13.73-36.14l74.86-66.36-74.86-66.35A20.68,20.68,0,0,1,414,127.87l92.3,81.83a20.67,20.67,0,0,1,0,30.94L414,322.47A20.61,20.61,0,0,1,400.24,327.67Z" transform="translate(-2.97 -24.35)"/><path class="cls-1" d="M265.25,337A20.68,20.68,0,0,1,246,308.88l69.48-181.4a20.68,20.68,0,0,1,38.62,14.79l-69.48,181.4A20.69,20.69,0,0,1,265.25,337Z" transform="translate(-2.97 -24.35)"/></svg>